<svg width="16" height="16" viewBox="0 0 16 16" fill="none" xmlns="http://www.w3.org/2000/svg">
<g clip-path="url(#clip0_3834_37760)">
<path d="M8.45541 15.8437L7.92221 15.9974C7.91015 16.0007 7.89743 16.0007 7.88537 15.9974L7.76823 15.9635C4.18982 14.933 1.79752 12.1775 1.79752 9.08643V2.86582C1.79752 2.52875 2.04254 2.22351 2.42161 2.08817L7.41841 0.304479C7.73258 0.19408 8.075 0.19408 8.38917 0.304479L13.5235 2.1372C13.8189 2.24272 14.0099 2.48129 14.0099 2.74352V9.44587C14.0099 12.3215 11.7848 14.885 8.45541 15.8437Z" fill="#3F424A"/>
<path d="M8.37291 14.6753L7.92015 14.8056C7.90995 14.8086 7.89909 14.8086 7.88889 14.8056L7.78954 14.7769C4.75192 13.9024 2.72134 11.5631 2.72134 8.93927V3.65888C2.72134 3.37214 2.92923 3.11407 3.2511 2.99937L7.49261 1.48536C7.75926 1.3916 8.04992 1.3916 8.31657 1.48536L12.6741 3.04052C12.925 3.13013 13.0871 3.33199 13.0871 3.55508V9.24451C13.0874 11.685 11.1982 13.8614 8.37291 14.6753Z" fill="#ABABAB"/>
<path d="M11.0478 5.59814C10.9958 5.53565 10.9321 5.48401 10.8601 5.44616C10.7882 5.40832 10.7095 5.38502 10.6285 5.37759C10.5476 5.37016 10.466 5.37875 10.3883 5.40287C10.3107 5.42698 10.2386 5.46615 10.1761 5.51814L6.63482 8.46457L6.3022 6.95731C6.28469 6.87793 6.25172 6.80277 6.20517 6.73613C6.15862 6.66949 6.0994 6.61268 6.03088 6.56893C5.96237 6.52518 5.88591 6.49535 5.80587 6.48116C5.72583 6.46696 5.64378 6.46867 5.5644 6.48619C5.4041 6.52157 5.26442 6.61917 5.17607 6.75753C5.08772 6.89589 5.05794 7.06367 5.09328 7.22398L5.6401 9.70316C5.6401 9.7056 5.64139 9.70804 5.64197 9.71047C5.66184 9.81203 5.70707 9.90692 5.77344 9.98632C5.82543 10.0488 5.88922 10.1004 5.96117 10.1383C6.03311 10.1761 6.1118 10.1994 6.19275 10.2068C6.2737 10.2142 6.35531 10.2056 6.43293 10.1815C6.51056 10.1574 6.58266 10.1182 6.64514 10.0662L10.9681 6.46984C11.0306 6.41784 11.0822 6.35404 11.12 6.28209C11.1578 6.21014 11.1811 6.13145 11.1885 6.0505C11.1959 5.96956 11.1873 5.88795 11.1632 5.81033C11.139 5.73271 11.0998 5.66061 11.0478 5.59814Z" fill="#4B4942"/>
</g>
<defs>
<clipPath id="clip0_3834_37760">
<rect width="16" height="16" fill="white"/>
</clipPath>
</defs>
</svg>
