<svg width="24" height="24" viewBox="0 0 24 24" fill="none" xmlns="http://www.w3.org/2000/svg">
<g clip-path="url(#clip0_8093_97109)">
<path d="M2.86748 0.358398H2.93694C3.63212 0.358398 4.29884 0.634545 4.79043 1.12609C5.28202 1.61764 5.55822 2.28434 5.55828 2.97952V5.75376H0.0244141V3.20146C0.0244141 2.44743 0.32395 1.72429 0.857128 1.19111C1.39031 0.657934 2.11345 0.358398 2.86748 0.358398Z" fill="#336BFF"/>
<path d="M3.07227 0.358398C3.07227 0.358398 5.37102 0.731093 5.37102 2.67586C5.37102 2.74038 5.34413 14.7442 5.32801 19.2086C5.32048 21.368 7.05965 23.1227 9.20743 23.1227H22.6485V3.70018C22.6486 2.90545 22.3369 2.14242 21.7803 1.57513C21.2237 1.00785 20.4667 0.681618 19.6721 0.666576L3.07227 0.358398Z" fill="#3333FF"/>
<path d="M10.8776 18.5967C11.2236 18.9907 11.4486 19.476 11.5257 19.9946C11.6028 20.5132 11.5288 21.0431 11.3126 21.5207C11.0963 21.9983 10.7469 22.4035 10.3063 22.6876C9.86564 22.9718 9.35243 23.1228 8.82812 23.1228H22.4503C22.8611 23.1225 23.255 22.9591 23.5453 22.6685C23.8357 22.3779 23.9988 21.9839 23.9987 21.5731V18.5967H10.8776Z" fill="#336BFF"/>
<path d="M21.1155 6.79785H7.9209V7.47292H21.1155V6.79785Z" fill="#FAC744"/>
<path d="M21.1155 8.39355H7.9209V9.06862H21.1155V8.39355Z" fill="#FAC744"/>
<path d="M21.1155 9.98926H7.9209V10.6643H21.1155V9.98926Z" fill="#FAC744"/>
<path d="M21.1155 11.585H7.9209V12.26H21.1155V11.585Z" fill="#FAC744"/>
<path d="M21.1157 12.9961H12.8613V13.9168H21.1157V12.9961Z" fill="#FAC744"/>
<path d="M6.20738 23.3349C7.93885 23.3349 9.34249 22.795 9.34249 22.1289C9.34249 21.4628 7.93885 20.9229 6.20738 20.9229C4.4759 20.9229 3.07227 21.4628 3.07227 22.1289C3.07227 22.795 4.4759 23.3349 6.20738 23.3349Z" fill="#EA792D"/>
<path d="M6.20738 22.959C7.93885 22.959 9.34249 22.419 9.34249 21.7529C9.34249 21.0868 7.93885 20.5469 6.20738 20.5469C4.4759 20.5469 3.07227 21.0868 3.07227 21.7529C3.07227 22.419 4.4759 22.959 6.20738 22.959Z" fill="#FAC744"/>
<path d="M6.20729 22.7381C7.62105 22.7381 8.76712 22.2972 8.76712 21.7533C8.76712 21.2094 7.62105 20.7686 6.20729 20.7686C4.79354 20.7686 3.64746 21.2094 3.64746 21.7533C3.64746 22.2972 4.79354 22.7381 6.20729 22.7381Z" fill="#EA792D"/>
<path d="M6.20738 22.7363C7.93885 22.7363 9.34249 22.1963 9.34249 21.5303C9.34249 20.8642 7.93885 20.3242 6.20738 20.3242C4.4759 20.3242 3.07227 20.8642 3.07227 21.5303C3.07227 22.1963 4.4759 22.7363 6.20738 22.7363Z" fill="#EA792D"/>
<path d="M6.20738 22.3613C7.93885 22.3613 9.34249 21.8213 9.34249 21.1553C9.34249 20.4892 7.93885 19.9492 6.20738 19.9492C4.4759 19.9492 3.07227 20.4892 3.07227 21.1553C3.07227 21.8213 4.4759 22.3613 6.20738 22.3613Z" fill="#FAC744"/>
<path d="M6.20729 22.1394C7.62105 22.1394 8.76712 21.6985 8.76712 21.1547C8.76712 20.6108 7.62105 20.1699 6.20729 20.1699C4.79354 20.1699 3.64746 20.6108 3.64746 21.1547C3.64746 21.6985 4.79354 22.1394 6.20729 22.1394Z" fill="#EA792D"/>
<path d="M6.20738 22.1621C7.93885 22.1621 9.34249 21.6221 9.34249 20.956C9.34249 20.29 7.93885 19.75 6.20738 19.75C4.4759 19.75 3.07227 20.29 3.07227 20.956C3.07227 21.6221 4.4759 22.1621 6.20738 22.1621Z" fill="#EA792D"/>
<path d="M6.20738 21.7861C7.93885 21.7861 9.34249 21.2461 9.34249 20.5801C9.34249 19.914 7.93885 19.374 6.20738 19.374C4.4759 19.374 3.07227 19.914 3.07227 20.5801C3.07227 21.2461 4.4759 21.7861 6.20738 21.7861Z" fill="#FAC744"/>
<path d="M6.20729 21.5652C7.62105 21.5652 8.76712 21.1243 8.76712 20.5804C8.76712 20.0366 7.62105 19.5957 6.20729 19.5957C4.79354 19.5957 3.64746 20.0366 3.64746 20.5804C3.64746 21.1243 4.79354 21.5652 6.20729 21.5652Z" fill="#EA792D"/>
<path d="M6.20738 21.5644C7.93885 21.5644 9.34249 21.0245 9.34249 20.3584C9.34249 19.6923 7.93885 19.1523 6.20738 19.1523C4.4759 19.1523 3.07227 19.6923 3.07227 20.3584C3.07227 21.0245 4.4759 21.5644 6.20738 21.5644Z" fill="#EA792D"/>
<path d="M6.20738 21.1885C7.93885 21.1885 9.34249 20.6485 9.34249 19.9824C9.34249 19.3163 7.93885 18.7764 6.20738 18.7764C4.4759 18.7764 3.07227 19.3163 3.07227 19.9824C3.07227 20.6485 4.4759 21.1885 6.20738 21.1885Z" fill="#FAC744"/>
<path d="M6.20729 20.9666C7.62105 20.9666 8.76712 20.5257 8.76712 19.9818C8.76712 19.438 7.62105 18.9971 6.20729 18.9971C4.79354 18.9971 3.64746 19.438 3.64746 19.9818C3.64746 20.5257 4.79354 20.9666 6.20729 20.9666Z" fill="#EA792D"/>
<path d="M8.76731 23.7345C10.2131 23.7345 11.3852 23.2837 11.3852 22.7276C11.3852 22.1715 10.2131 21.7207 8.76731 21.7207C7.32149 21.7207 6.14941 22.1715 6.14941 22.7276C6.14941 23.2837 7.32149 23.7345 8.76731 23.7345Z" fill="#EA792D"/>
<path d="M8.76731 23.421C10.2131 23.421 11.3852 22.9702 11.3852 22.4141C11.3852 21.858 10.2131 21.4072 8.76731 21.4072C7.32149 21.4072 6.14941 21.858 6.14941 22.4141C6.14941 22.9702 7.32149 23.421 8.76731 23.421Z" fill="#FAC744"/>
<path d="M8.76734 23.2361C9.94782 23.2361 10.9048 22.868 10.9048 22.414C10.9048 21.9599 9.94782 21.5918 8.76734 21.5918C7.58686 21.5918 6.62988 21.9599 6.62988 22.414C6.62988 22.868 7.58686 23.2361 8.76734 23.2361Z" fill="#EA792D"/>
<path d="M8.76731 23.2345C10.2131 23.2345 11.3852 22.7837 11.3852 22.2276C11.3852 21.6715 10.2131 21.2207 8.76731 21.2207C7.32149 21.2207 6.14941 21.6715 6.14941 22.2276C6.14941 22.7837 7.32149 23.2345 8.76731 23.2345Z" fill="#EA792D"/>
<path d="M8.76731 22.921C10.2131 22.921 11.3852 22.4702 11.3852 21.9141C11.3852 21.358 10.2131 20.9072 8.76731 20.9072C7.32149 20.9072 6.14941 21.358 6.14941 21.9141C6.14941 22.4702 7.32149 22.921 8.76731 22.921Z" fill="#FAC744"/>
<path d="M8.76734 22.7361C9.94782 22.7361 10.9048 22.368 10.9048 21.914C10.9048 21.4599 9.94782 21.0918 8.76734 21.0918C7.58686 21.0918 6.62988 21.4599 6.62988 21.914C6.62988 22.368 7.58686 22.7361 8.76734 22.7361Z" fill="#EA792D"/>
<path d="M8.76731 22.756C10.2131 22.756 11.3852 22.3052 11.3852 21.7491C11.3852 21.193 10.2131 20.7422 8.76731 20.7422C7.32149 20.7422 6.14941 21.193 6.14941 21.7491C6.14941 22.3052 7.32149 22.756 8.76731 22.756Z" fill="#EA792D"/>
<path d="M8.76731 22.4415C10.2131 22.4415 11.3852 21.9907 11.3852 21.4346C11.3852 20.8785 10.2131 20.4277 8.76731 20.4277C7.32149 20.4277 6.14941 20.8785 6.14941 21.4346C6.14941 21.9907 7.32149 22.4415 8.76731 22.4415Z" fill="#FAC744"/>
<path d="M8.76734 22.2566C9.94782 22.2566 10.9048 21.8885 10.9048 21.4345C10.9048 20.9804 9.94782 20.6123 8.76734 20.6123C7.58686 20.6123 6.62988 20.9804 6.62988 21.4345C6.62988 21.8885 7.58686 22.2566 8.76734 22.2566Z" fill="#EA792D"/>
<path d="M8.76731 22.256C10.2131 22.256 11.3852 21.8052 11.3852 21.2491C11.3852 20.693 10.2131 20.2422 8.76731 20.2422C7.32149 20.2422 6.14941 20.693 6.14941 21.2491C6.14941 21.8052 7.32149 22.256 8.76731 22.256Z" fill="#EA792D"/>
<path d="M8.76731 21.9415C10.2131 21.9415 11.3852 21.4907 11.3852 20.9346C11.3852 20.3785 10.2131 19.9277 8.76731 19.9277C7.32149 19.9277 6.14941 20.3785 6.14941 20.9346C6.14941 21.4907 7.32149 21.9415 8.76731 21.9415Z" fill="#FAC744"/>
<path d="M8.76734 21.7576C9.94782 21.7576 10.9048 21.3895 10.9048 20.9354C10.9048 20.4814 9.94782 20.1133 8.76734 20.1133C7.58686 20.1133 6.62988 20.4814 6.62988 20.9354C6.62988 21.3895 7.58686 21.7576 8.76734 21.7576Z" fill="#EA792D"/>
</g>
<defs>
<clipPath id="clip0_8093_97109">
<rect width="24" height="24" fill="white"/>
</clipPath>
</defs>
</svg>
