<svg width="57" height="57" viewBox="0 0 57 57" fill="none" xmlns="http://www.w3.org/2000/svg">
<g filter="url(#filter0_b_7885_35132)">
<path d="M0 19.684C0 14.9235 3.35586 10.8229 8.02231 9.88146L45.0223 2.41655C51.2149 1.16717 57 5.90169 57 12.219V45.2972C57 51.442 51.51 56.1332 45.4404 55.1748L8.44037 49.3327C3.57985 48.5652 0 44.3758 0 39.4551V19.684Z" fill="#FAFCFF"/>
<path d="M0.5 19.684C0.5 15.1615 3.68807 11.266 8.12119 10.3716L45.1212 2.90667C51.0041 1.71977 56.5 6.21756 56.5 12.219V45.2972C56.5 51.1347 51.2845 55.5914 45.5184 54.6809L8.51835 48.8388C3.90086 48.1097 0.5 44.1298 0.5 39.4551V19.684Z" stroke="url(#paint0_linear_7885_35132)"/>
</g>
<g clip-path="url(#clip0_7885_35132)">
<path d="M31.9346 15.2979H32.0206C32.3827 15.2979 32.7299 15.4417 32.9859 15.6977C33.242 15.9537 33.3858 16.301 33.3858 16.663V19.7438H30.5694V16.663C30.5694 16.4838 30.6047 16.3062 30.6733 16.1406C30.7419 15.975 30.8425 15.8245 30.9693 15.6977C31.096 15.5709 31.2465 15.4704 31.4121 15.4018C31.5778 15.3332 31.7553 15.2979 31.9346 15.2979Z" fill="#EA792D"/>
<path d="M31.6133 24.997L27.4371 19.9942C27.3799 19.9252 27.3435 19.8413 27.3321 19.7524C27.3208 19.6635 27.3349 19.5732 27.3729 19.492C27.411 19.4109 27.4713 19.3422 27.5469 19.294C27.6225 19.2458 27.7102 19.2202 27.7998 19.22H36.1539C36.2435 19.2202 36.3312 19.2458 36.4068 19.294C36.4824 19.3422 36.5427 19.4109 36.5808 19.492C36.6188 19.5732 36.633 19.6635 36.6216 19.7524C36.6102 19.8413 36.5738 19.9252 36.5166 19.9942L32.3396 24.997C32.2952 25.0503 32.2397 25.0931 32.177 25.1226C32.1142 25.152 32.0457 25.1672 31.9764 25.1672C31.9071 25.1672 31.8387 25.152 31.7759 25.1226C31.7131 25.0931 31.6576 25.0503 31.6133 24.997Z" fill="#FAC744"/>
<path d="M38.0888 40.7758H24.3538C23.9522 40.7759 23.5618 40.644 23.2425 40.4005C22.9232 40.157 22.6927 39.8154 22.5866 39.4281L18.9105 25.9792H43.169C43.3004 25.9795 43.4299 26.0109 43.5468 26.0708C43.6638 26.1307 43.7648 26.2175 43.8418 26.3241C43.9187 26.4306 43.9692 26.5539 43.9893 26.6837C44.0094 26.8136 43.9984 26.9464 43.9573 27.0712L39.8282 39.5204C39.707 39.8859 39.4737 40.2039 39.1614 40.4293C38.8492 40.6547 38.4739 40.7759 38.0888 40.7758Z" fill="#3333FF"/>
<path d="M21.6145 25.9791L18.9105 16.4907V16.4778H13.2992C12.9547 16.4779 12.6243 16.6148 12.3806 16.8584C12.137 17.102 12.0001 17.4325 12 17.777V17.777C12.0001 18.1216 12.137 18.452 12.3806 18.6956C12.6243 18.9393 12.9547 19.0762 13.2992 19.0763H16.9452L18.9137 25.9825L21.6145 25.9791Z" fill="#336BFF"/>
<path d="M24.8846 45.0531C25.8415 45.0531 26.6171 44.2775 26.6171 43.3206C26.6171 42.3638 25.8415 41.5881 24.8846 41.5881C23.9278 41.5881 23.1521 42.3638 23.1521 43.3206C23.1521 44.2775 23.9278 45.0531 24.8846 45.0531Z" fill="#3333FF"/>
<path d="M37.2631 45.0531C38.2199 45.0531 38.9956 44.2775 38.9956 43.3206C38.9956 42.3638 38.2199 41.5881 37.2631 41.5881C36.3062 41.5881 35.5306 42.3638 35.5306 43.3206C35.5306 44.2775 36.3062 45.0531 37.2631 45.0531Z" fill="#3333FF"/>
</g>
<defs>
<filter id="filter0_b_7885_35132" x="-52" y="-49.7844" width="161" height="157.084" filterUnits="userSpaceOnUse" color-interpolation-filters="sRGB">
<feFlood flood-opacity="0" result="BackgroundImageFix"/>
<feGaussianBlur in="BackgroundImageFix" stdDeviation="26"/>
<feComposite in2="SourceAlpha" operator="in" result="effect1_backgroundBlur_7885_35132"/>
<feBlend mode="normal" in="SourceGraphic" in2="effect1_backgroundBlur_7885_35132" result="shape"/>
</filter>
<linearGradient id="paint0_linear_7885_35132" x1="5.06531" y1="6.99059" x2="62.3112" y2="8.00484" gradientUnits="userSpaceOnUse">
<stop stop-color="#FAC744"/>
<stop offset="0.505208" stop-color="#8B14EF"/>
<stop offset="1" stop-color="#3333FF"/>
</linearGradient>
<clipPath id="clip0_7885_35132">
<rect width="32" height="32" fill="white" transform="translate(12 13)"/>
</clipPath>
</defs>
</svg>
