<svg width="217" height="30" viewBox="0 0 217 30" fill="none" xmlns="http://www.w3.org/2000/svg">
<path d="M12.4591 7.13811e-06C9.55103 -0.00310609 6.73367 1.01223 4.49614 2.86974C2.25861 4.72725 0.742178 7.30966 0.210108 10.1686C-0.321961 13.0276 0.163928 15.9827 1.58342 18.5208C3.00291 21.0589 5.26637 23.0198 7.98087 24.063L6.51425 25.5185C6.39737 25.6359 6.31113 25.7802 6.2631 25.9387C6.21506 26.0973 6.20671 26.2652 6.23878 26.4277C6.27084 26.5902 6.34233 26.7424 6.44698 26.8708C6.55162 26.9993 6.68622 27.1 6.83892 27.1642C7.02601 27.2445 7.23296 27.2664 7.43271 27.2271C7.63246 27.1878 7.81571 27.0892 7.95848 26.944L10.22 24.6825C10.9583 24.8212 11.7079 24.8911 12.4591 24.8915C15.7599 24.8915 18.9255 23.5803 21.2596 21.2462C23.5936 18.9122 24.9049 15.7466 24.9049 12.4458C24.9049 9.14494 23.5936 5.97932 21.2596 3.64528C18.9255 1.31125 15.7599 7.13811e-06 12.4591 7.13811e-06ZM1.92779 12.4458C1.93076 9.65459 3.04086 6.97857 5.01452 5.00491C6.98818 3.03125 9.66419 1.92115 12.4554 1.91818C12.7091 1.91818 12.9629 1.91818 13.2017 1.94804L5.73802 9.41176C3.38695 11.7628 3.15184 13.8776 5.0327 15.7559C6.44334 17.1666 8.87527 16.5446 12.3285 13.89C15.7817 11.2354 17.8118 10.2141 18.4189 10.8261C19.363 11.7666 19.1242 12.9384 17.721 14.349L9.48481 22.5591C7.30013 21.918 5.38146 20.5874 4.01538 18.766C2.6493 16.9445 1.90912 14.73 1.9054 12.4532L1.92779 12.4458ZM12.4554 22.9733C12.2874 22.9733 12.112 22.9733 11.9404 22.9733L19.1429 15.7709C21.4989 13.4198 21.734 11.3051 19.8482 9.42669C18.4425 8.01605 16.0118 8.63802 12.5561 11.2926C9.10789 13.946 7.06656 14.9722 6.462 14.3565C5.52157 13.416 5.75668 12.2418 7.16732 10.8336L15.6013 2.39213C18.0027 3.14425 20.0553 4.73134 21.3877 6.86606C22.72 9.00079 23.2439 11.542 22.8646 14.0296C22.4853 16.5173 21.2277 18.7868 19.3197 20.4274C17.4116 22.068 14.9792 22.9711 12.4628 22.9733H12.4554Z" fill="#4E4E4E"/>
<path d="M4.85022 27.5859C4.60388 27.585 4.36486 27.6697 4.17398 27.8254C3.9831 27.9811 3.85219 28.1983 3.80361 28.4398C3.75502 28.6813 3.79177 28.9321 3.90759 29.1495C4.0234 29.367 4.2111 29.5374 4.43862 29.6319C4.66615 29.7263 4.91939 29.7388 5.15512 29.6673C5.39085 29.5957 5.59444 29.4446 5.73112 29.2397C5.86781 29.0347 5.92912 28.7887 5.90458 28.5436C5.88005 28.2985 5.77119 28.0695 5.59659 27.8957C5.39824 27.6983 5.13007 27.587 4.85022 27.5859Z" fill="#4E4E4E"/>
<path d="M37.6787 5.06738H51.662V7.86255H37.6787C34.8823 7.86255 33.4841 8.79427 33.4841 10.6577C33.4841 11.8718 36.5132 12.8744 42.5712 13.6656C48.6293 14.4567 51.6583 16.2518 51.6583 19.0507C51.6583 22.7825 49.3284 24.6485 44.6685 24.6485H30.689V21.8533H44.6685C47.4674 21.8533 48.8656 20.9216 48.8631 19.0581C48.8631 17.8465 45.8341 16.8439 39.776 16.0503C33.718 15.2566 30.689 13.4616 30.689 10.6652C30.689 6.93331 33.0189 5.06738 37.6787 5.06738Z" fill="#4E4E4E"/>
<path d="M68.437 7.85881H54.4575V5.06738H68.437C73.0994 5.06738 75.4293 6.93331 75.4268 10.6652C75.4243 14.397 73.0944 16.263 68.437 16.263H57.2414V24.6485H54.4463V13.4529H68.4258C71.2247 13.4529 72.6229 12.5212 72.6205 10.6577C72.618 8.79427 71.2198 7.86255 68.4258 7.86255L68.437 7.85881Z" fill="#4E4E4E"/>
<path d="M84.6407 5.06801H91.6304C96.2928 5.06801 98.6227 6.93394 98.6202 10.6658V19.055C98.6202 22.7869 96.2903 24.6528 91.6304 24.6528H84.6407C79.9833 24.6528 77.6534 22.7869 77.6509 19.055V10.6583C77.6509 6.92648 79.9808 5.06055 84.6407 5.06055V5.06801ZM91.6304 7.86318H84.6407C81.8442 7.86318 80.446 8.7949 80.446 10.6583V19.0438C80.446 20.9098 81.8442 21.8427 84.6407 21.8427H91.6304C94.4293 21.8427 95.8288 20.9098 95.8288 19.0438V10.6546C95.8288 8.79117 94.4293 7.85944 91.6304 7.85944V7.86318Z" fill="#4E4E4E"/>
<path d="M115.402 7.85881H101.434V5.06738H115.417C120.075 5.06738 122.405 6.93331 122.407 10.6652C122.41 14.397 120.08 16.263 115.417 16.263H114.589L122.978 24.6522H119.022L110.633 16.2592H104.214V24.6485H101.434V13.4529H115.417C118.214 13.4529 119.612 12.5212 119.612 10.6577C119.612 8.79427 118.214 7.86255 115.417 7.86255L115.402 7.85881Z" fill="#4E4E4E"/>
<path d="M132.319 7.85881H123.232V5.06738H144.201V7.86255H135.114V24.6373H132.319V7.84389V7.85881Z" fill="#4E4E4E"/>
<path d="M160.98 7.85881H147V5.06738H160.98C165.642 5.06738 167.972 6.93331 167.97 10.6652C167.967 14.397 165.637 16.263 160.98 16.263H160.155L168.545 24.6522H164.604L156.214 16.2592H149.796V24.6485H147V13.4529H160.98C163.779 13.4529 165.177 12.5212 165.175 10.6577C165.172 8.79427 163.774 7.86255 160.98 7.86255V7.85881Z" fill="#4E4E4E"/>
<path d="M177.321 5.06784H191.305V7.863H177.321C174.525 7.863 173.128 8.79472 173.13 10.6582V13.4496H191.305V16.2448H173.13V19.0437C173.13 20.9071 174.527 21.8388 177.321 21.8388H191.305V24.634H177.321C172.664 24.634 170.334 22.7681 170.332 19.0362V10.6544C170.332 6.92257 172.661 5.05664 177.321 5.05664V5.06784Z" fill="#4E4E4E"/>
<path d="M212.271 10.6583V5.06055H215.066V10.6583C215.066 14.3902 212.736 16.2561 208.076 16.2561H207.964L216.461 24.6454H212.528L204.027 16.2524H201.075C198.279 16.2524 196.882 17.1854 196.884 19.0513V24.6491H194.085V19.0513C194.085 15.3194 196.416 13.4535 201.079 13.4535H201.187L192.689 5.06801H196.63L205.131 13.4498H208.068C210.865 13.4498 212.263 12.5193 212.263 10.6583H212.271Z" fill="#4E4E4E"/>
</svg>
