<svg width="24" height="24" viewBox="0 0 24 24" fill="none" xmlns="http://www.w3.org/2000/svg">
<g clip-path="url(#clip0_3632_24493)">
<path d="M20.0054 9.44922H1.95988C1.01931 9.44922 0.256836 10.2117 0.256836 11.1523V20.7724C0.256836 21.713 1.01931 22.4755 1.95988 22.4755H20.0054C20.9459 22.4755 21.7084 21.713 21.7084 20.7724V11.1523C21.7084 10.2117 20.9459 9.44922 20.0054 9.44922Z" fill="#3333FF"/>
<path d="M1.45117 8.19343L17.3373 0.361889C17.6755 0.195195 18.0614 0.151954 18.4281 0.239646C18.7949 0.327337 19.1194 0.540445 19.3457 0.842112L19.9747 1.68084L6.8289 8.19343H1.45117Z" fill="#336BFF"/>
<path d="M12.2949 8.19373L21.0506 3.89258L23.9495 9.82215C24.1317 10.195 24.1602 10.6245 24.0288 11.0182C23.8975 11.4119 23.6169 11.7383 23.2474 11.9271L22.4841 12.3172L22.097 10.5308C21.985 10.0138 21.7067 9.5477 21.3047 9.2039C20.9027 8.86009 20.3991 8.65748 19.871 8.62707L12.2949 8.19373Z" fill="#336BFF"/>
<path d="M15.4935 12.3174H1.69043V13.5125H15.4935V12.3174Z" fill="#FAC744"/>
<path d="M13.1033 14.4082H1.69043V15.3046H13.1033V14.4082Z" fill="#FAC744"/>
<path d="M18.3921 17.2773H15.8826C15.1401 17.2773 14.5381 17.8793 14.5381 18.6219V19.5778C14.5381 20.3204 15.1401 20.9224 15.8826 20.9224H18.3921C19.1347 20.9224 19.7367 20.3204 19.7367 19.5778V18.6219C19.7367 17.8793 19.1347 17.2773 18.3921 17.2773Z" fill="#FAC744"/>
</g>
<defs>
<clipPath id="clip0_3632_24493">
<rect width="24" height="24" fill="white"/>
</clipPath>
</defs>
</svg>
