<svg width="24" height="24" viewBox="0 0 24 24" fill="none" xmlns="http://www.w3.org/2000/svg">
<g clip-path="url(#clip0_3981_60402)">
<path d="M2.13578 21.5003C2.19858 21.5631 2.26266 21.6239 2.3274 21.6835L4.83454 19.1703C4.81755 19.1542 4.80056 19.1377 4.78378 19.1209C4.52508 18.8622 4.31987 18.5551 4.17986 18.2171C4.03986 17.8791 3.9678 17.5168 3.9678 17.151C3.9678 16.7851 4.03986 16.4228 4.17986 16.0848C4.31987 15.7468 4.52508 15.4397 4.78378 15.181L8.37847 11.5863C8.63717 11.3276 8.94428 11.1224 9.28228 10.9824C9.62028 10.8424 9.98255 10.7703 10.3484 10.7703C10.7143 10.7703 11.0765 10.8424 11.4145 10.9824C11.7525 11.1224 12.0596 11.3276 12.3183 11.5863C12.3323 11.6001 12.3459 11.6143 12.3594 11.6293L14.9453 9.03659C14.89 8.97702 14.8339 8.9181 14.776 8.86003C12.3428 6.42686 8.39783 6.42686 5.96467 8.86003L2.13664 12.6881C-0.296523 15.1212 -0.296523 19.0663 2.13664 21.4994L2.13578 21.5003Z" fill="#3333FF"/>
<path d="M8.85867 14.7776C8.92147 14.8404 8.98555 14.9013 9.05029 14.9609L11.5574 12.4477C11.5404 12.4316 11.5234 12.415 11.5067 12.3982C11.248 12.1395 11.0428 11.8324 10.9028 11.4944C10.7627 11.1564 10.6907 10.7941 10.6907 10.4283C10.6907 10.0624 10.7627 9.70018 10.9028 9.36217C11.0428 9.02417 11.248 8.71706 11.5067 8.45836L15.1014 4.86367C15.36 4.60497 15.6672 4.39975 16.0052 4.25975C16.3432 4.11974 16.7054 4.04768 17.0713 4.04768C17.4371 4.04768 17.7994 4.11974 18.1374 4.25975C18.4754 4.39975 18.7825 4.60497 19.0412 4.86367C19.0552 4.87743 19.0687 4.89162 19.0823 4.9056L21.6681 2.31394C21.6129 2.25437 21.5567 2.19544 21.4989 2.13738C19.0657 -0.295792 15.1207 -0.295792 12.6884 2.13738L8.86039 5.96541C6.42723 8.39858 6.42723 12.3436 8.86039 14.7768L8.85867 14.7776Z" fill="#EA792D"/>
<path d="M21.8643 2.50452C21.8015 2.44172 21.7376 2.38086 21.6729 2.32129L19.0823 4.905C19.0993 4.92134 19.2165 5.02844 19.2165 5.02844C20.3045 6.11642 20.3045 7.73581 19.2165 8.82379L15.6218 12.4185C13.6553 14.2162 11.571 12.4615 11.5572 12.4471L9.05505 14.9676C9.11011 15.0271 9.16624 15.0861 9.22409 15.1439C11.6572 17.5773 15.602 17.5773 18.0354 15.1439L21.8634 11.3159C24.2968 8.88272 24.2968 4.93769 21.8634 2.50452H21.8643Z" fill="#FAC744"/>
<path d="M15.148 9.22208C15.0852 9.15928 15.0211 9.09863 14.9564 9.03906L12.3593 11.6279C12.3763 11.6443 12.4645 11.7017 12.4813 11.7185L12.5673 11.7972C13.6553 12.8852 13.5873 14.4536 12.4993 15.5416L8.90529 19.1363C7.03429 21.2223 4.84801 19.1842 4.83446 19.17L2.3385 21.6862C2.39377 21.7458 2.4499 21.8049 2.50775 21.8628C4.94091 24.2959 8.88593 24.2959 11.3191 21.8628L15.1471 18.0347C17.5803 15.6016 17.5803 11.6565 15.1471 9.22337L15.148 9.22208Z" fill="#336BFF"/>
</g>
<defs>
<clipPath id="clip0_3981_60402">
<rect width="24" height="24" fill="white"/>
</clipPath>
</defs>
</svg>
