<svg width="24" height="24" viewBox="0 0 24 24" fill="none" xmlns="http://www.w3.org/2000/svg">
<path d="M22.8173 4.48926H1.30396C0.651424 4.48926 0.122437 5.01825 0.122437 5.67078V18.7463C0.122437 19.3988 0.651424 19.9278 1.30396 19.9278H22.8173C23.4698 19.9278 23.9988 19.3988 23.9988 18.7463V5.67078C23.9988 5.01825 23.4698 4.48926 22.8173 4.48926Z" fill="#808080"/>
<path d="M21.7298 5.26953H2.39139C1.80477 5.26953 1.32922 5.74508 1.32922 6.3317V18.0852C1.32922 18.6719 1.80477 19.1474 2.39139 19.1474H21.7298C22.3164 19.1474 22.7919 18.6719 22.7919 18.0852V6.3317C22.7919 5.74508 22.3164 5.26953 21.7298 5.26953Z" fill="#999999"/>
<path d="M14.8818 19.928H9.23914V22.2912H14.8818V19.928Z" fill="#808080"/>
<path d="M15.7982 22.271H8.32275V23.5168H15.7982V22.271Z" fill="#808080"/>
<path d="M11.7559 7.50902L11.0833 6.75195L7.05675 10.3294L7.72938 11.0864L11.7559 7.50902Z" fill="#F2F2F2"/>
<path d="M15.2598 7.98088L15.3007 6.96899L11.112 6.80003L11.0711 7.81191L15.2598 7.98088Z" fill="#F2F2F2"/>
<path d="M17.233 6.82015L16.7267 5.94312L14.7778 7.0683L15.2842 7.94533L17.233 6.82015Z" fill="#F2F2F2"/>
<path d="M8.31141 14.2866H7.29871V18.1934H8.31141V14.2866Z" fill="#F2F2F2"/>
<path d="M10.9157 12.2104H9.90295V18.1936H10.9157V12.2104Z" fill="#F2F2F2"/>
<path d="M13.3029 8.64453H12.2902V18.1937H13.3029V8.64453Z" fill="#F2F2F2"/>
<path d="M15.666 14.4319H14.6533V18.3261H15.666V14.4319Z" fill="#F2F2F2"/>
<path d="M17.752 17.3113H16.7393V18.324H17.752V17.3113Z" fill="#F2F2F2"/>
<path d="M4.70628 6.94238H2.36731V7.19551H4.70628V6.94238Z" fill="#F2F2F2"/>
<path d="M4.70628 17.9353H2.36731V18.1884H4.70628V17.9353Z" fill="#F2F2F2"/>
<path d="M4.96604 17.4153H2.62708V17.6684H4.96604V17.4153Z" fill="#F2F2F2"/>
<path d="M5.58053 16.895H3.24158V17.1481H5.58053V16.895Z" fill="#F2F2F2"/>
<path d="M3.98303 7.38843H2.36731V7.89489H3.98303V7.38843Z" fill="#F2F2F2"/>
<path d="M22.02 6.59253H19.681V7.09899H22.02V6.59253Z" fill="#F2F2F2"/>
<path d="M21.2968 7.29199H19.681V7.79841H21.2968V7.29199Z" fill="#F2F2F2"/>
</svg>
