<svg width="24" height="24" viewBox="0 0 24 24" fill="none" xmlns="http://www.w3.org/2000/svg">
<path d="M22.6948 4.69775H1.18153C0.528987 4.69775 0 5.22674 0 5.87928V18.9548C0 19.6073 0.528987 20.1363 1.18153 20.1363H22.6948C23.3474 20.1363 23.8763 19.6073 23.8763 18.9548V5.87928C23.8763 5.22674 23.3474 4.69775 22.6948 4.69775Z" fill="#3333FF"/>
<path d="M21.6074 5.47827H2.26896C1.68234 5.47827 1.20679 5.95382 1.20679 6.54044V18.294C1.20679 18.8806 1.68234 19.3562 2.26896 19.3562H21.6074C22.194 19.3562 22.6695 18.8806 22.6695 18.294V6.54044C22.6695 5.95382 22.194 5.47827 21.6074 5.47827Z" fill="#336BFF"/>
<path d="M14.7595 20.1362H9.11682V22.4995H14.7595V20.1362Z" fill="#3333FF"/>
<path d="M15.6761 22.4792H8.20068V23.7251H15.6761V22.4792Z" fill="#3333FF"/>
<path d="M11.6336 7.71751L10.9609 6.96045L6.93445 10.5378L7.60708 11.2949L11.6336 7.71751Z" fill="#EA792D"/>
<path d="M15.1375 8.18939L15.1783 7.17749L10.9896 7.00852L10.9488 8.02042L15.1375 8.18939Z" fill="#EA792D"/>
<path d="M17.1107 7.02864L16.6044 6.15161L14.6555 7.27679L15.1619 8.15382L17.1107 7.02864Z" fill="#EA792D"/>
<path d="M8.1891 14.4954H7.17639V18.4021H8.1891V14.4954Z" fill="#FAC744"/>
<path d="M10.7933 12.4189H9.78064V18.4021H10.7933V12.4189Z" fill="#FAC744"/>
<path d="M13.1808 8.85278H12.1681V18.402H13.1808V8.85278Z" fill="#FAC744"/>
<path d="M15.544 14.6404H14.5312V18.5346H15.544V14.6404Z" fill="#FAC744"/>
<path d="M17.6297 17.5198H16.6169V18.5325H17.6297V17.5198Z" fill="#FAC744"/>
<path d="M4.58408 7.15063H2.24512V7.40378H4.58408V7.15063Z" fill="#EA792D"/>
<path d="M4.58408 18.1438H2.24512V18.3969H4.58408V18.1438Z" fill="#EA792D"/>
<path d="M4.84397 17.6238H2.505V17.8769H4.84397V17.6238Z" fill="#EA792D"/>
<path d="M5.4586 17.1038H3.11963V17.3569H5.4586V17.1038Z" fill="#EA792D"/>
<path d="M3.86085 7.59692H2.24512V8.10338H3.86085V7.59692Z" fill="#EA792D"/>
<path d="M21.898 6.80103H19.5591V7.30749H21.898V6.80103Z" fill="#EA792D"/>
<path d="M21.1748 7.50024H19.5591V8.0067H21.1748V7.50024Z" fill="#EA792D"/>
</svg>
