<svg width="80" height="80" viewBox="0 0 80 80" fill="none" xmlns="http://www.w3.org/2000/svg">
<ellipse cx="39.5" cy="40" rx="22.5" ry="24" fill="white"/>
<ellipse cx="39.5" cy="40" rx="22.5" ry="24" fill="white"/>
<path d="M40.0001 6.6665C21.5667 6.6665 6.66675 21.5665 6.66675 39.9998C6.66675 58.4332 21.5667 73.3332 40.0001 73.3332C58.4334 73.3332 73.3334 58.4332 73.3334 39.9998C73.3334 21.5665 58.4334 6.6665 40.0001 6.6665ZM54.3334 54.3332C54.025 54.6422 53.6587 54.8873 53.2555 55.0546C52.8523 55.2219 52.42 55.308 51.9834 55.308C51.5469 55.308 51.1146 55.2219 50.7113 55.0546C50.3081 54.8873 49.9418 54.6422 49.6334 54.3332L40.0001 44.6998L30.3667 54.3332C29.7435 54.9564 28.8982 55.3066 28.0167 55.3066C27.1353 55.3066 26.29 54.9564 25.6667 54.3332C25.0435 53.7099 24.6933 52.8646 24.6933 51.9832C24.6933 51.5467 24.7793 51.1146 24.9463 50.7114C25.1133 50.3081 25.3581 49.9418 25.6667 49.6332L35.3001 39.9998L25.6667 30.3665C25.0435 29.7432 24.6933 28.8979 24.6933 28.0165C24.6933 27.1351 25.0435 26.2898 25.6667 25.6665C26.29 25.0432 27.1353 24.6931 28.0167 24.6931C28.8982 24.6931 29.7435 25.0432 30.3667 25.6665L40.0001 35.2998L49.6334 25.6665C49.942 25.3579 50.3084 25.1131 50.7116 24.9461C51.1148 24.7791 51.547 24.6931 51.9834 24.6931C52.4199 24.6931 52.852 24.7791 53.2552 24.9461C53.6584 25.1131 54.0248 25.3579 54.3334 25.6665C54.642 25.9751 54.8868 26.3415 55.0538 26.7447C55.2209 27.1479 55.3068 27.5801 55.3068 28.0165C55.3068 28.4529 55.2209 28.8851 55.0538 29.2883C54.8868 29.6915 54.642 30.0579 54.3334 30.3665L44.7001 39.9998L54.3334 49.6332C55.6001 50.8998 55.6001 53.0332 54.3334 54.3332Z" fill="#AF0C0C"/>
</svg>
