<svg width="24" height="24" viewBox="0 0 24 24" fill="none" xmlns="http://www.w3.org/2000/svg">
<path d="M19.4817 15.1277L20.4082 16.248C20.7652 16.6797 20.936 17.2355 20.8832 17.7932C20.8304 18.3508 20.5582 18.8647 20.1266 19.2216L17.7379 21.197C17.3062 21.554 16.7504 21.7249 16.1928 21.6721C15.6351 21.6192 15.1213 21.3471 14.7643 20.9154L13.8378 19.7951L19.4817 15.1277Z" fill="#999999"/>
<path d="M6.45825 10.8889L5.52783 9.7695C5.16933 9.33818 4.99685 8.7821 5.04834 8.22361C5.09983 7.66512 5.37107 7.14996 5.8024 6.79146L8.18911 4.8077C8.62043 4.4492 9.1765 4.27672 9.73499 4.32821C10.2935 4.37971 10.8086 4.65095 11.1671 5.08227L12.0976 6.20169L6.45825 10.8889Z" fill="#999999"/>
<path d="M3.1445 21.5764C3.31529 21.4352 3.33925 21.1822 3.198 21.0114C3.05676 20.8406 2.8038 20.8166 2.63301 20.9579L0.318436 22.872C0.147642 23.0133 0.123686 23.2662 0.264929 23.437C0.406172 23.6078 0.659129 23.6318 0.829923 23.4905L3.1445 21.5764Z" fill="#999999"/>
<path d="M2.40451 20.1609C2.5753 20.0196 2.59926 19.7667 2.45801 19.5959C2.31677 19.4251 2.06381 19.4011 1.89302 19.5424L0.769218 20.4717C0.598424 20.613 0.574469 20.8659 0.715711 21.0367C0.856954 21.2075 1.10991 21.2315 1.2807 21.0902L2.40451 20.1609Z" fill="#999999"/>
<path d="M4.31674 22.4734C4.48753 22.3321 4.51149 22.0792 4.37024 21.9084C4.229 21.7376 3.97605 21.7136 3.80525 21.8549L2.27807 23.1178C2.10727 23.2591 2.08332 23.512 2.22456 23.6828C2.3658 23.8536 2.61876 23.8776 2.78955 23.7363L4.31674 22.4734Z" fill="#999999"/>
<path d="M23.6637 6.38979L23.3936 5.2259C23.3416 5.00164 23.2382 4.79254 23.0915 4.61513C22.9449 4.43773 22.7589 4.29688 22.5484 4.20373L21.4557 3.7205C18.6838 2.49467 15.6823 2.80564 13.5863 4.53901L5.08057 11.5735L5.0967 11.5931C5.43096 11.4022 5.82187 11.3355 6.20055 11.4045C6.57922 11.4736 6.92136 11.6742 7.16668 11.9708C7.412 12.2674 7.54476 12.6411 7.54156 13.026C7.53837 13.4109 7.39942 13.7824 7.1492 14.0749L7.15307 14.0794C6.35736 15.114 6.3651 16.6154 7.25028 17.6857C8.08255 18.6922 9.43483 19.0077 10.5622 18.5534C10.6687 18.5109 10.7698 18.4558 10.8632 18.3891C11.5559 17.8915 12.5299 18.0137 13.0865 18.6866C13.6672 19.3889 13.5738 20.4249 12.8777 21.0006L21.3834 13.9656C23.4792 12.2323 24.3489 9.34253 23.6637 6.38979Z" fill="#808080"/>
<path d="M8.03966 20.7008C8.53132 20.2958 8.87223 19.737 9.00742 19.1145C8.58234 19.1143 8.1627 19.0189 7.77933 18.8353C7.39596 18.6517 7.05859 18.3845 6.79202 18.0534C6.52544 17.7223 6.33643 17.3357 6.23886 16.922C6.1413 16.5082 6.13767 16.0779 6.22823 15.6626C5.8067 15.6623 5.39036 15.7556 5.00931 15.9359C4.62826 16.1161 4.29201 16.3788 4.02486 16.7049C3.75771 17.0309 3.56634 17.4123 3.46456 17.8213C3.36278 18.2304 3.35314 18.6569 3.43635 19.0702C3.24058 19.317 3.13552 19.6236 3.13874 19.9386C3.14197 20.2536 3.25328 20.558 3.45406 20.8008C3.65484 21.0435 3.93291 21.21 4.24173 21.2723C4.55055 21.3346 4.87139 21.2889 5.15057 21.1429C5.6271 21.3374 6.14746 21.399 6.65623 21.3212C7.165 21.2433 7.64312 21.0289 8.03966 20.7008Z" fill="#999999"/>
<path d="M16.5682 14.0305C18.8192 14.0305 20.644 12.2057 20.644 9.95468C20.644 7.70369 18.8192 5.87891 16.5682 5.87891C14.3172 5.87891 12.4924 7.70369 12.4924 9.95468C12.4924 12.2057 14.3172 14.0305 16.5682 14.0305Z" fill="white"/>
<path d="M16.5682 12.1553C17.7836 12.1553 18.7689 11.17 18.7689 9.95459C18.7689 8.73919 17.7836 7.75391 16.5682 7.75391C15.3528 7.75391 14.3676 8.73919 14.3676 9.95459C14.3676 11.17 15.3528 12.1553 16.5682 12.1553Z" fill="#808080"/>
</svg>
