<svg width="24" height="24" viewBox="0 0 24 24" fill="none" xmlns="http://www.w3.org/2000/svg">
<g clip-path="url(#clip0_1157_763)">
<path d="M11.4704 3.92232L3.06811 10.9281C2.75735 11.1861 2.5752 11.5881 2.5752 12.0132V24.0004H21.5191V12.1231C21.5191 11.6285 21.3073 11.1623 20.946 10.861L12.6233 3.92232C12.4625 3.78525 12.2581 3.70996 12.0468 3.70996C11.8356 3.70996 11.6312 3.78525 11.4704 3.92232Z" fill="#3333FF"/>
<path d="M9.80148 16.2397H14.2962C14.6237 16.2397 14.9379 16.3699 15.1695 16.6015C15.4011 16.8331 15.5313 17.1473 15.5313 17.4748V24.0004H8.56641V17.4748C8.56641 17.3126 8.59835 17.152 8.66042 17.0022C8.72249 16.8523 8.81346 16.7162 8.92815 16.6015C9.04284 16.4868 9.17899 16.3958 9.32884 16.3338C9.47869 16.2717 9.63929 16.2397 9.80148 16.2397Z" fill="#FAC744"/>
<path d="M22.5666 8.89285L12.123 0.0703317C12.1145 0.063214 12.1048 0.0578293 12.0942 0.0544851C12.0837 0.0511409 12.0726 0.0499028 12.0616 0.0508414C12.0506 0.05178 12.0399 0.0548769 12.0301 0.0599554C12.0203 0.0650339 12.0116 0.0719944 12.0045 0.0804394L11.9851 0.0574283L1.03865 9.3049C0.98309 9.35178 0.94134 9.41289 0.917886 9.4817C0.894433 9.55051 0.890163 9.6244 0.905534 9.69545L1.20081 11.066C1.21547 11.1335 1.24732 11.196 1.29327 11.2476C1.33922 11.2992 1.3977 11.338 1.46306 11.3603C1.52842 11.3826 1.59843 11.3876 1.66631 11.3749C1.73419 11.3622 1.79764 11.3322 1.8505 11.2877L11.7273 2.9435C11.8163 2.86822 11.9291 2.82691 12.0458 2.82691C12.1624 2.82691 12.2752 2.86822 12.3643 2.9435L21.7137 10.8415C21.7695 10.8887 21.8366 10.9208 21.9084 10.9346C21.9802 10.9485 22.0543 10.9437 22.1237 10.9206C22.1931 10.8976 22.2555 10.8571 22.3047 10.8031C22.354 10.749 22.3886 10.6833 22.4051 10.612L22.7062 9.31458C22.7238 9.23825 22.7201 9.15853 22.6955 9.08416C22.6709 9.00978 22.6263 8.9436 22.5666 8.89285Z" fill="#EA792D"/>
<path d="M18.9934 2.86035H19.2061C19.3894 2.86035 19.5653 2.9332 19.695 3.06286C19.8246 3.19252 19.8975 3.36839 19.8975 3.55176V7.00922H18.3018V3.55197C18.3017 3.46114 18.3196 3.37119 18.3543 3.28727C18.3891 3.20334 18.44 3.12709 18.5043 3.06286C18.5685 2.99863 18.6448 2.94769 18.7287 2.91294C18.8126 2.87819 18.9025 2.86032 18.9934 2.86035Z" fill="#EA792D"/>
</g>
<defs>
<clipPath id="clip0_1157_763">
<rect width="24" height="24" fill="white"/>
</clipPath>
</defs>
</svg>
