<svg width="24" height="24" viewBox="0 0 24 24" fill="none" xmlns="http://www.w3.org/2000/svg">
<path d="M11.4714 3.89717L3.06908 10.9035C2.75833 11.1616 2.57617 11.5635 2.57617 11.9887V23.9756H21.5201V12.0982C21.5201 11.6035 21.3083 11.1373 20.947 10.836L12.6243 3.89717C12.4635 3.7601 12.2591 3.68481 12.0478 3.68481C11.8365 3.68481 11.6322 3.7601 11.4714 3.89717Z" fill="#999999"/>
<path d="M9.80099 16.2153H14.2957C14.6233 16.2153 14.9374 16.3455 15.169 16.5771C15.4006 16.8087 15.5308 17.1228 15.5308 17.4504V23.9754H8.56592V17.4498C8.56609 17.1223 8.69629 16.8083 8.92789 16.5768C9.15949 16.3454 9.47354 16.2153 9.80099 16.2153Z" fill="#808080"/>
<path d="M22.5656 8.86743L12.122 0.045119C12.1135 0.0379619 12.1038 0.0325388 12.0933 0.0291612C12.0828 0.0257835 12.0717 0.024518 12.0607 0.0254373C12.0496 0.0263565 12.0389 0.0294425 12.0291 0.0345178C12.0193 0.0395931 12.0106 0.0465578 12.0035 0.0550116L11.9841 0.0322155L1.03766 9.27969C0.982109 9.32658 0.940373 9.3877 0.916921 9.4565C0.89347 9.5253 0.889188 9.59919 0.904535 9.67024L1.19981 11.041C1.2145 11.1085 1.24637 11.171 1.29233 11.2225C1.33829 11.2741 1.39678 11.3129 1.46214 11.3351C1.52749 11.3574 1.59749 11.3624 1.66536 11.3497C1.73322 11.337 1.79665 11.307 1.8495 11.2625L11.7263 2.91829C11.8154 2.84325 11.9282 2.8021 12.0448 2.8021C12.1613 2.8021 12.2741 2.84325 12.3633 2.91829L21.7133 10.8174C21.7692 10.8645 21.8363 10.8965 21.9081 10.9103C21.9799 10.9241 22.054 10.9193 22.1234 10.8962C22.1928 10.8732 22.2551 10.8327 22.3044 10.7787C22.3536 10.7247 22.3882 10.6589 22.4048 10.5877L22.7058 9.29045C22.7236 9.21386 22.7199 9.13385 22.6952 9.05922C22.6705 8.98459 22.6256 8.91823 22.5656 8.86743Z" fill="#808080"/>
<path d="M18.9945 2.83521H19.2072C19.2981 2.83518 19.388 2.85305 19.472 2.88781C19.5559 2.92258 19.6322 2.97354 19.6964 3.03779C19.7606 3.10204 19.8116 3.17832 19.8463 3.26227C19.881 3.34622 19.8989 3.43619 19.8988 3.52704V6.98409H18.3031V3.52704C18.303 3.43621 18.3209 3.34626 18.3556 3.26232C18.3903 3.17839 18.4412 3.10211 18.5055 3.03787C18.5697 2.97362 18.6459 2.92265 18.7298 2.88788C18.8137 2.8531 18.9037 2.83521 18.9945 2.83521Z" fill="#808080"/>
</svg>
