<svg width="24" height="24" viewBox="0 0 24 24" fill="none" xmlns="http://www.w3.org/2000/svg">
<path d="M6 23H2C1.73478 23 1.48043 22.8946 1.29289 22.7071C1.10536 22.5196 1 22.2652 1 22V14C1 13.7348 1.10536 13.4804 1.29289 13.2929C1.48043 13.1054 1.73478 13 2 13H6C6.26522 13 6.51957 13.1054 6.70711 13.2929C6.89464 13.4804 7 13.7348 7 14V22C7 22.2652 6.89464 22.5196 6.70711 22.7071C6.51957 22.8946 6.26522 23 6 23Z" fill="#FAFCFF"/>
<path d="M14 23H10C9.73478 23 9.48043 22.9234 9.29289 22.787C9.10536 22.6506 9 22.4656 9 22.2727V7.72727C9 7.53439 9.10536 7.3494 9.29289 7.21301C9.48043 7.07662 9.73478 7 10 7H14C14.2652 7 14.5196 7.07662 14.7071 7.21301C14.8946 7.3494 15 7.53439 15 7.72727V22.2727C15 22.4656 14.8946 22.6506 14.7071 22.787C14.5196 22.9234 14.2652 23 14 23Z" fill="#FAFCFF"/>
<path d="M22 23H18C17.7348 23 17.4804 22.8946 17.2929 22.7071C17.1054 22.5196 17 22.2652 17 22V10C17 9.73478 17.1054 9.48043 17.2929 9.29289C17.4804 9.10536 17.7348 9 18 9H22C22.2652 9 22.5196 9.10536 22.7071 9.29289C22.8946 9.48043 23 9.73478 23 10V22C23 22.2652 22.8946 22.5196 22.7071 22.7071C22.5196 22.8946 22.2652 23 22 23Z" fill="#FAFCFF"/>
</svg>
