<svg width="58" height="57" viewBox="0 0 58 57" fill="none" xmlns="http://www.w3.org/2000/svg">
<g filter="url(#filter0_b_8712_16335)">
<path d="M0.5 19.684C0.5 14.9235 3.85586 10.8229 8.52231 9.88146L45.5223 2.41655C51.7149 1.16717 57.5 5.90169 57.5 12.219V45.2972C57.5 51.442 52.01 56.1332 45.9404 55.1748L8.94037 49.3327C4.07985 48.5652 0.5 44.3758 0.5 39.4551V19.684Z" fill="#FAFCFF"/>
<path d="M1 19.684C1 15.1615 4.18807 11.266 8.62119 10.3716L45.6212 2.90667C51.5041 1.71977 57 6.21756 57 12.219V45.2972C57 51.1347 51.7845 55.5914 46.0184 54.6809L9.01835 48.8388C4.40086 48.1097 1 44.1298 1 39.4551V19.684Z" stroke="url(#paint0_linear_8712_16335)"/>
</g>
<path d="M16.8739 35.7032L22.1775 32.9926L21.9539 23.734C21.9521 23.6606 21.9318 23.5889 21.8949 23.5255C21.858 23.462 21.8056 23.409 21.7427 23.3712C21.6798 23.3334 21.6083 23.3122 21.535 23.3094C21.4616 23.3066 21.3888 23.3224 21.3232 23.3554L16.8739 25.5911V35.7032Z" fill="#336BFF"/>
<path d="M41.4794 35.7279L36.1756 33.0182L36.3996 23.7582C36.4016 23.6849 36.4221 23.6133 36.4591 23.5501C36.4961 23.4868 36.5485 23.4339 36.6113 23.3963C36.6742 23.3586 36.7456 23.3375 36.8189 23.3348C36.8921 23.3321 36.9649 23.3479 37.0304 23.3808L41.4794 25.6158V35.7279Z" fill="#336BFF"/>
<path d="M29.1213 15H29.2305C29.6937 15 30.138 15.184 30.4656 15.5116C30.7932 15.8392 30.9773 16.2835 30.9773 16.7468V20.689H27.3755V16.7468C27.3755 16.2837 27.5594 15.8395 27.8868 15.512C28.2142 15.1844 28.6582 15.0003 29.1213 15V15Z" fill="#EA792D"/>
<path d="M28.8753 31.7616L16.8739 25.7327V35.7376L28.8792 41.8734C28.9711 41.9203 29.0727 41.9447 29.1758 41.9447C29.2789 41.9447 29.3806 41.9203 29.4725 41.8734L41.4785 35.7376V25.7327L29.4783 31.7616C29.3847 31.8085 29.2815 31.8329 29.1768 31.8329C29.0721 31.8329 28.9689 31.8085 28.8753 31.7616Z" fill="#3333FF"/>
<path d="M28.7126 27.4113L23.3679 21.009C23.0391 20.6154 23.3195 20.0171 23.8319 20.0171H34.5213C35.0342 20.0171 35.3141 20.6154 34.9856 21.009L29.6409 27.4113C29.5841 27.4792 29.5131 27.5339 29.4329 27.5714C29.3527 27.6089 29.2653 27.6283 29.1767 27.6283C29.0882 27.6283 29.0007 27.6089 28.9205 27.5714C28.8403 27.5339 28.7693 27.4792 28.7126 27.4113Z" fill="#FAC744"/>
<defs>
<filter id="filter0_b_8712_16335" x="-51.5" y="-49.7844" width="161" height="157.084" filterUnits="userSpaceOnUse" color-interpolation-filters="sRGB">
<feFlood flood-opacity="0" result="BackgroundImageFix"/>
<feGaussianBlur in="BackgroundImageFix" stdDeviation="26"/>
<feComposite in2="SourceAlpha" operator="in" result="effect1_backgroundBlur_8712_16335"/>
<feBlend mode="normal" in="SourceGraphic" in2="effect1_backgroundBlur_8712_16335" result="shape"/>
</filter>
<linearGradient id="paint0_linear_8712_16335" x1="5.56531" y1="6.99059" x2="62.8112" y2="8.00484" gradientUnits="userSpaceOnUse">
<stop stop-color="#FAC744"/>
<stop offset="0.505208" stop-color="#8B14EF"/>
<stop offset="1" stop-color="#3333FF"/>
</linearGradient>
</defs>
</svg>
