<svg width="20" height="22" viewBox="0 0 20 22" fill="none" xmlns="http://www.w3.org/2000/svg">
<path d="M18.3349 14.2724C18.0902 14.2724 17.8555 14.1752 17.6825 14.0022C17.5095 13.8292 17.4123 13.5945 17.4123 13.3499V9.13258C17.4123 5.43162 14.6113 2.38516 11.0143 1.99662V0.837997C11.0143 0.7356 10.9941 0.634205 10.9549 0.539608C10.9157 0.445012 10.8583 0.359067 10.7858 0.286686C10.7134 0.214304 10.6274 0.156905 10.5328 0.117768C10.4382 0.078631 10.3368 0.0585233 10.2344 0.0585939C10.0277 0.0585939 9.82941 0.140709 9.68324 0.286876C9.53708 0.433042 9.45496 0.631287 9.45496 0.837997V1.99662C5.85723 2.38516 3.057 5.43162 3.057 9.13258V13.4183C3.057 13.6448 2.96701 13.8621 2.80683 14.0223C2.64664 14.1825 2.42939 14.2724 2.20286 14.2724H2.1344C2.07535 14.2724 2.01685 14.2839 1.96227 14.3064C1.90769 14.329 1.85808 14.3621 1.8163 14.4038C1.77452 14.4455 1.74138 14.4951 1.71877 14.5497C1.69617 14.6042 1.68455 14.6627 1.68457 14.7217V17.392C1.68455 17.451 1.69615 17.5095 1.71872 17.564C1.74129 17.6185 1.77439 17.6681 1.81611 17.7098C1.85784 17.7515 1.90738 17.7846 1.9619 17.8072C2.01642 17.8297 2.07485 17.8413 2.13386 17.8413H18.3349C18.3939 17.8413 18.4523 17.8297 18.5068 17.8071C18.5613 17.7845 18.6108 17.7515 18.6526 17.7097C18.6943 17.668 18.7274 17.6185 18.75 17.564C18.7725 17.5095 18.7842 17.451 18.7842 17.392V14.7217C18.7842 14.6627 18.7725 14.6043 18.75 14.5498C18.7274 14.4953 18.6943 14.4458 18.6526 14.404C18.6108 14.3623 18.5613 14.3292 18.5068 14.3066C18.4523 14.2841 18.3939 14.2724 18.3349 14.2724Z" fill="#3333FF"/>
<path d="M7.67871 18.2275C8.12065 19.2464 9.09236 19.9539 10.22 19.9539C11.3476 19.9539 12.3195 19.2464 12.7614 18.2275H7.67871Z" fill="#FAC744"/>
<path d="M15.2098 21.1034C16.6459 21.1034 17.8102 19.8921 17.8102 18.3979C17.8102 16.9037 16.6459 15.6924 15.2098 15.6924C13.7736 15.6924 12.6094 16.9037 12.6094 18.3979C12.6094 19.8921 13.7736 21.1034 15.2098 21.1034Z" fill="#FF0000"/>
</svg>
