<svg width="24" height="24" viewBox="0 0 24 24" fill="none" xmlns="http://www.w3.org/2000/svg">
<g clip-path="url(#clip0_8093_97088)">
<path d="M21.8457 6.75265C21.4035 6.90596 20.9371 6.97745 20.4694 6.96362C18.3992 6.90491 16.7342 5.19391 16.7286 3.12313C16.7273 2.75615 16.7784 2.39087 16.8805 2.03838C16.9106 1.93331 16.9158 1.82269 16.8958 1.71525C16.8757 1.60781 16.831 1.5065 16.7651 1.41933C16.6992 1.33216 16.6139 1.26151 16.516 1.21297C16.418 1.16443 16.3102 1.13933 16.2009 1.13965H1.60428C1.40228 1.13968 1.20226 1.1795 1.01565 1.25683C0.829035 1.33417 0.659483 1.44751 0.516675 1.59038C0.373867 1.73324 0.2606 1.90284 0.183343 2.08949C0.106085 2.27613 0.0663499 2.47617 0.0664064 2.67817V19.0471C0.0663498 19.1525 0.0870639 19.2568 0.127365 19.3542C0.167665 19.4516 0.226763 19.5401 0.301279 19.6146C0.375795 19.6892 0.46427 19.7483 0.561646 19.7886C0.659022 19.8289 0.76339 19.8497 0.868786 19.8497H2.69118L3.16238 23.2476C3.24238 23.8254 3.92239 24.0949 4.37659 23.7286L9.18786 19.8497H20.4655C20.7722 19.8497 21.0759 19.7892 21.3593 19.6718C21.6427 19.5545 21.9001 19.3824 22.117 19.1655C22.3339 18.9486 22.5059 18.6911 22.6233 18.4077C22.7406 18.1244 22.801 17.8206 22.801 17.5139V7.43331C22.8011 7.3185 22.7738 7.20532 22.7212 7.10324C22.6687 7.00115 22.5925 6.91312 22.499 6.8465C22.4055 6.77987 22.2974 6.73659 22.1838 6.72027C22.0701 6.70394 21.9542 6.71504 21.8457 6.75265Z" fill="#3333FF"/>
<path d="M20.5805 6.22549C22.2996 6.22549 23.6933 4.83186 23.6933 3.11274C23.6933 1.39362 22.2996 0 20.5805 0C18.8614 0 17.4678 1.39362 17.4678 3.11274C17.4678 4.83186 18.8614 6.22549 20.5805 6.22549Z" fill="#FAC744"/>
</g>
<defs>
<clipPath id="clip0_8093_97088">
<rect width="24" height="24" fill="white"/>
</clipPath>
</defs>
</svg>
