<svg width="194" height="194" viewBox="0 0 194 194" fill="none" xmlns="http://www.w3.org/2000/svg">
<mask id="path-1-outside-1_3688_31106" maskUnits="userSpaceOnUse" x="0" y="0" width="194" height="194" fill="black">
<rect fill="white" width="194" height="194"/>
<path fill-rule="evenodd" clip-rule="evenodd" d="M25.4012 1H8.2C4.22355 1 1 4.22355 1 8.2V22.8913H1.2V8.2C1.2 4.334 4.33401 1.2 8.2 1.2H25.4012V1ZM168.594 1.2V1H185.796C189.772 1 192.996 4.22355 192.996 8.2V22.8913H192.796V8.2C192.796 4.33401 189.662 1.2 185.796 1.2H168.594ZM168.594 192.8H185.796C189.662 192.8 192.796 189.666 192.796 185.8V171.11H192.996V185.8C192.996 189.776 189.772 193 185.796 193H168.594V192.8ZM1.2 171.11V185.8C1.2 189.666 4.33401 192.8 8.2 192.8H25.4012V193H8.2C4.22355 193 1 189.776 1 185.8V171.11H1.2Z"/>
</mask>
<path fill-rule="evenodd" clip-rule="evenodd" d="M25.4012 1H8.2C4.22355 1 1 4.22355 1 8.2V22.8913H1.2V8.2C1.2 4.334 4.33401 1.2 8.2 1.2H25.4012V1ZM168.594 1.2V1H185.796C189.772 1 192.996 4.22355 192.996 8.2V22.8913H192.796V8.2C192.796 4.33401 189.662 1.2 185.796 1.2H168.594ZM168.594 192.8H185.796C189.662 192.8 192.796 189.666 192.796 185.8V171.11H192.996V185.8C192.996 189.776 189.772 193 185.796 193H168.594V192.8ZM1.2 171.11V185.8C1.2 189.666 4.33401 192.8 8.2 192.8H25.4012V193H8.2C4.22355 193 1 189.776 1 185.8V171.11H1.2Z" fill="#152139"/>
<path d="M25.4012 1H25.6012V0.8H25.4012V1ZM1 22.8913H0.8V23.0913H1V22.8913ZM1.2 22.8913V23.0913H1.4V22.8913H1.2ZM25.4012 1.2V1.4H25.6012V1.2H25.4012ZM168.594 1.2H168.394V1.4H168.594V1.2ZM168.594 1V0.8H168.394V1H168.594ZM192.996 22.8913V23.0913H193.196V22.8913H192.996ZM192.796 22.8913H192.596V23.0913H192.796V22.8913ZM168.594 192.8V192.6H168.394V192.8H168.594ZM192.796 171.11V170.91H192.596V171.11H192.796ZM192.996 171.11H193.196V170.91H192.996V171.11ZM168.594 193H168.394V193.2H168.594V193ZM1.2 171.11H1.4V170.91H1.2V171.11ZM25.4012 192.8H25.6012V192.6H25.4012V192.8ZM25.4012 193V193.2H25.6012V193H25.4012ZM1 171.11V170.91H0.8V171.11H1ZM8.2 1.2H25.4012V0.8H8.2V1.2ZM1.2 8.2C1.2 4.334 4.33401 1.2 8.2 1.2V0.8C4.11309 0.8 0.8 4.11309 0.8 8.2H1.2ZM1.2 22.8913V8.2H0.8V22.8913H1.2ZM1.2 22.6913H1V23.0913H1.2V22.6913ZM1 8.2V22.8913H1.4V8.2H1ZM8.2 1C4.22355 1 1 4.22355 1 8.2H1.4C1.4 4.44446 4.44446 1.4 8.2 1.4V1ZM25.4012 1H8.2V1.4H25.4012V1ZM25.2012 1V1.2H25.6012V1H25.2012ZM168.794 1.2V1H168.394V1.2H168.794ZM168.594 1.2H185.796V0.8H168.594V1.2ZM185.796 1.2C189.662 1.2 192.796 4.33401 192.796 8.2H193.196C193.196 4.11309 189.883 0.8 185.796 0.8V1.2ZM192.796 8.2V22.8913H193.196V8.2H192.796ZM192.996 22.6913H192.796V23.0913H192.996V22.6913ZM192.996 22.8913V8.2H192.596V22.8913H192.996ZM192.996 8.2C192.996 4.22355 189.772 1 185.796 1V1.4C189.551 1.4 192.596 4.44446 192.596 8.2H192.996ZM185.796 1H168.594V1.4H185.796V1ZM168.594 193H185.796V192.6H168.594V193ZM185.796 193C189.772 193 192.996 189.776 192.996 185.8H192.596C192.596 189.556 189.551 192.6 185.796 192.6V193ZM192.996 185.8V171.11H192.596V185.8H192.996ZM192.796 171.31H192.996V170.91H192.796V171.31ZM192.796 171.11V185.8H193.196V171.11H192.796ZM192.796 185.8C192.796 189.666 189.662 192.8 185.796 192.8V193.2C189.883 193.2 193.196 189.887 193.196 185.8H192.796ZM185.796 192.8H168.594V193.2H185.796V192.8ZM168.794 193V192.8H168.394V193H168.794ZM1 171.11V185.8H1.4V171.11H1ZM1 185.8C1 189.776 4.22355 193 8.2 193V192.6C4.44447 192.6 1.4 189.556 1.4 185.8H1ZM8.2 193H25.4012V192.6H8.2V193ZM25.2012 192.8V193H25.6012V192.8H25.2012ZM25.4012 192.8H8.2V193.2H25.4012V192.8ZM8.2 192.8C4.33401 192.8 1.2 189.666 1.2 185.8H0.8C0.8 189.887 4.1131 193.2 8.2 193.2V192.8ZM1.2 185.8V171.11H0.8V185.8H1.2ZM1 171.31H1.2V170.91H1V171.31Z" fill="#ABABAB" mask="url(#path-1-outside-1_3688_31106)"/>
</svg>
