<svg width="32" height="32" viewBox="0 0 32 32" fill="none" xmlns="http://www.w3.org/2000/svg">
<path d="M1.62839 24.537L7.91409 21.3244L7.64914 10.3513C7.64703 10.2643 7.62297 10.1793 7.5792 10.1041C7.53544 10.0289 7.47338 9.96604 7.3988 9.92127C7.32422 9.8765 7.23953 9.8513 7.15261 9.84802C7.06568 9.84474 6.97934 9.86349 6.9016 9.90251L1.62839 12.5523V24.537Z" fill="#336BFF"/>
<path d="M30.7904 24.5654L24.5044 21.3539L24.7699 10.3791C24.7723 10.2923 24.7965 10.2075 24.8404 10.1325C24.8842 10.0575 24.9463 9.9948 25.0209 9.95019C25.0954 9.90559 25.18 9.88052 25.2668 9.87731C25.3536 9.8741 25.4398 9.89285 25.5175 9.93183L30.7904 12.5808V24.5654Z" fill="#336BFF"/>
<path d="M16.1438 0H16.2732C16.8222 0 17.3488 0.218119 17.7371 0.606373C18.1253 0.994628 18.3435 1.52121 18.3435 2.07029V6.74249H14.0747V2.07029C14.0747 1.52141 14.2926 0.995 14.6806 0.606779C15.0687 0.218557 15.595 0.000304086 16.1438 0V0Z" fill="#EA792D"/>
<path d="M15.8523 19.8661L1.62839 12.7207V24.5784L15.8569 31.8505C15.9658 31.906 16.0863 31.9349 16.2085 31.9349C16.3307 31.9349 16.4511 31.906 16.56 31.8505L30.7894 24.5784V12.7207L16.5669 19.8661C16.456 19.9217 16.3337 19.9506 16.2096 19.9506C16.0856 19.9506 15.9632 19.9217 15.8523 19.8661Z" fill="#3333FF"/>
<path d="M15.6593 14.7107L9.3249 7.12291C8.93521 6.65638 9.26755 5.94727 9.87487 5.94727H22.5438C23.1517 5.94727 23.4834 6.65638 23.094 7.12291L16.7596 14.7107C16.6923 14.7912 16.6082 14.856 16.5131 14.9005C16.4181 14.9449 16.3144 14.968 16.2095 14.968C16.1045 14.968 16.0009 14.9449 15.9058 14.9005C15.8108 14.856 15.7266 14.7912 15.6593 14.7107Z" fill="#FAC744"/>
</svg>
