<svg width="20" height="20" viewBox="0 0 20 20" fill="none" xmlns="http://www.w3.org/2000/svg">
<g clip-path="url(#clip0_8093_97163)">
<path d="M4.18262 11.6242L4.46219 16.1368L20.0005 1.32617L4.18262 11.6242Z" fill="#336BFF"/>
<path d="M4.19649 11.6263L0 6.05483L19.9823 1.2793L4.19649 11.6263Z" fill="#3333FF"/>
<path d="M5.47852 13.3642L10.3456 19.8577L20 1.32617L5.47852 13.3642Z" fill="#3333FF"/>
<path d="M5.47878 13.3642L4.46191 16.1368L20.0002 1.32617L5.47878 13.3642Z" fill="#3333FF"/>
<path d="M2.66242 13.5091L2.61525 13.4528C2.54135 13.3645 2.4099 13.3529 2.32164 13.4268L0.0911163 15.2944C0.00285886 15.3683 -0.00878067 15.4998 0.0651187 15.588L0.11229 15.6444C0.18619 15.7326 0.317644 15.7443 0.405901 15.6704L2.63643 13.8027C2.72468 13.7288 2.73632 13.5974 2.66242 13.5091Z" fill="#FAC744"/>
<path d="M4.10188 15.2279L4.05471 15.1715C3.98081 15.0833 3.84935 15.0716 3.76109 15.1455L1.53057 17.0132C1.44231 17.0871 1.43067 17.2185 1.50457 17.3068L1.55174 17.3631C1.62564 17.4514 1.75709 17.463 1.84535 17.3891L4.07588 15.5215C4.16414 15.4476 4.17578 15.3161 4.10188 15.2279Z" fill="#FAC744"/>
<path d="M4.05305 13.6947L4.00588 13.6383C3.93198 13.5501 3.80052 13.5384 3.71227 13.6123L1.48173 15.48C1.39348 15.5539 1.38184 15.6853 1.45574 15.7736L1.50291 15.8299C1.57681 15.9182 1.70826 15.9298 1.79652 15.8559L4.02705 13.9883C4.11531 13.9144 4.12695 13.7829 4.05305 13.6947Z" fill="#FAC744"/>
<path d="M14.7234 14.8896C14.6001 14.8896 14.4795 14.9262 14.3769 14.9947C14.2743 15.0632 14.1943 15.1606 14.1471 15.2746C14.0999 15.3885 14.0875 15.5139 14.1116 15.6349C14.1356 15.7559 14.195 15.8671 14.2823 15.9543C14.3695 16.0415 14.4806 16.101 14.6016 16.125C14.7226 16.1491 14.848 16.1367 14.962 16.0895C15.076 16.0422 15.1734 15.9623 15.2419 15.8597C15.3104 15.7571 15.3469 15.6365 15.3469 15.5131C15.3469 15.3478 15.2812 15.1892 15.1643 15.0723C15.0474 14.9553 14.8888 14.8896 14.7234 14.8896ZM14.7234 15.9542C14.6362 15.9542 14.5509 15.9284 14.4784 15.8799C14.4058 15.8315 14.3493 15.7626 14.3158 15.682C14.2824 15.6015 14.2737 15.5128 14.2907 15.4272C14.3077 15.3416 14.3497 15.263 14.4113 15.2013C14.473 15.1396 14.5516 15.0976 14.6371 15.0806C14.7227 15.0635 14.8114 15.0723 14.892 15.1056C14.9726 15.139 15.0415 15.1956 15.0899 15.2681C15.1384 15.3406 15.1643 15.4259 15.1643 15.5131C15.1643 15.571 15.1529 15.6284 15.1308 15.6819C15.1086 15.7354 15.0762 15.784 15.0352 15.825C14.9943 15.866 14.9457 15.8984 14.8922 15.9206C14.8387 15.9428 14.7813 15.9542 14.7234 15.9542Z" fill="#FAC744"/>
<path d="M13.0899 16.708C13.0027 16.7081 12.9175 16.734 12.8451 16.7825C12.7726 16.831 12.7162 16.8998 12.6829 16.9804C12.6496 17.061 12.6409 17.1496 12.6579 17.2351C12.675 17.3206 12.717 17.3991 12.7787 17.4607C12.8403 17.5224 12.9189 17.5643 13.0044 17.5813C13.0899 17.5983 13.1785 17.5895 13.2591 17.5562C13.3396 17.5228 13.4084 17.4663 13.4569 17.3938C13.5053 17.3213 13.5311 17.2361 13.5311 17.1489C13.5311 17.091 13.5197 17.0336 13.4975 16.9801C13.4754 16.9266 13.4429 16.878 13.4019 16.837C13.3609 16.7961 13.3123 16.7636 13.2587 16.7415C13.2052 16.7193 13.1478 16.708 13.0899 16.708ZM13.0899 17.4607C13.0282 17.4607 12.968 17.4424 12.9167 17.4082C12.8654 17.3739 12.8254 17.3252 12.8018 17.2682C12.7782 17.2112 12.772 17.1485 12.7841 17.088C12.7961 17.0276 12.8258 16.972 12.8694 16.9284C12.913 16.8848 12.9686 16.8551 13.0291 16.843C13.0896 16.831 13.1523 16.8372 13.2093 16.8608C13.2662 16.8844 13.3149 16.9244 13.3492 16.9756C13.3835 17.0269 13.4017 17.0872 13.4017 17.1489C13.4017 17.2316 13.3689 17.3109 13.3104 17.3694C13.2519 17.4279 13.1726 17.4607 13.0899 17.4607Z" fill="#EA792D"/>
<path d="M5.74149 1.32324C5.56664 1.32324 5.39571 1.37509 5.25033 1.47223C5.10494 1.56938 4.99163 1.70745 4.92472 1.86899C4.8578 2.03054 4.8403 2.20829 4.87441 2.37978C4.90852 2.55128 4.99272 2.7088 5.11636 2.83244C5.24 2.95608 5.39752 3.04028 5.56902 3.07439C5.74051 3.10851 5.91827 3.091 6.07981 3.02409C6.24135 2.95717 6.37942 2.84386 6.47657 2.69847C6.57371 2.55309 6.62556 2.38216 6.62556 2.20731C6.62556 1.97284 6.53242 1.74798 6.36662 1.58218C6.20083 1.41639 5.97596 1.32324 5.74149 1.32324ZM5.74149 2.83241C5.61786 2.83241 5.497 2.79575 5.3942 2.72707C5.2914 2.65838 5.21128 2.56075 5.16397 2.44653C5.11666 2.33231 5.10428 2.20662 5.1284 2.08536C5.15252 1.9641 5.21205 1.85272 5.29948 1.7653C5.3869 1.67787 5.49828 1.61834 5.61954 1.59422C5.7408 1.5701 5.86648 1.58248 5.98071 1.62979C6.09493 1.6771 6.19256 1.75723 6.26124 1.86002C6.32993 1.96282 6.36659 2.08368 6.36659 2.20731C6.36659 2.3731 6.30073 2.5321 6.1835 2.64933C6.06628 2.76656 5.90728 2.83241 5.74149 2.83241Z" fill="#EA792D"/>
<path d="M3.34357 3.53516C3.25633 3.53512 3.17104 3.56096 3.09849 3.6094C3.02594 3.65784 2.96938 3.72671 2.93597 3.8073C2.90256 3.88789 2.8938 3.97657 2.9108 4.06214C2.92779 4.1477 2.96979 4.22631 3.03146 4.28801C3.09314 4.34971 3.17172 4.39173 3.25728 4.40876C3.34284 4.4258 3.43153 4.41707 3.51213 4.3837C3.59273 4.35032 3.66163 4.29379 3.7101 4.22126C3.75857 4.14872 3.78444 4.06344 3.78444 3.9762C3.78446 3.91829 3.77308 3.86094 3.75093 3.80744C3.72879 3.75393 3.69632 3.7053 3.65538 3.66435C3.61444 3.62339 3.56583 3.5909 3.51233 3.56873C3.45883 3.54657 3.40148 3.53516 3.34357 3.53516ZM3.34357 4.28786C3.28188 4.28789 3.22157 4.26963 3.17026 4.23538C3.11895 4.20113 3.07895 4.15243 3.05533 4.09544C3.0317 4.03845 3.02551 3.97574 3.03754 3.91523C3.04957 3.85473 3.07927 3.79915 3.12289 3.75553C3.16651 3.7119 3.22209 3.6822 3.2826 3.67017C3.34311 3.65815 3.40582 3.66434 3.46281 3.68796C3.5198 3.71159 3.5685 3.75158 3.60275 3.80289C3.637 3.8542 3.65526 3.91451 3.65523 3.9762C3.65518 4.05884 3.62233 4.13809 3.56389 4.19652C3.50546 4.25496 3.42621 4.28781 3.34357 4.28786Z" fill="#FAC744"/>
</g>
<defs>
<clipPath id="clip0_8093_97163">
<rect width="20" height="20" fill="white"/>
</clipPath>
</defs>
</svg>
