<svg width="53" height="91" viewBox="0 0 53 91" fill="none" xmlns="http://www.w3.org/2000/svg">
<path d="M46.9692 46.2727C46.9692 46.2727 48.4345 51.1731 48.4345 53.6991C48.4345 56.2251 48.0299 57.942 46.3624 58.2505C44.6948 58.559 43.5809 58.1999 43.0752 56.5324C42.5695 54.8648 43.0752 51.7837 41.5581 50.1174C40.041 48.4511 45.6493 39.0537 45.6493 39.0537L46.9692 46.2727Z" fill="#EA792D"/>
<path d="M31.6599 62.3367C31.6599 62.3367 29.2882 67.7921 21.6102 70.5204C13.9322 73.2487 11.7589 74.3132 9.58691 73.1476C7.41488 71.9819 7.26316 68.5962 9.58691 68.2978C11.9107 67.9994 21.7619 65.7212 23.6811 63.7009C25.6003 61.6806 27.4739 57.2847 27.4739 57.2847H34.0406L31.6599 62.3367Z" fill="#EA792D"/>
<path d="M26.2072 61.63C26.2072 61.63 30.9053 67.7415 27.9772 75.0667C25.0491 82.392 24.6901 82.4425 23.7343 83.1493C22.7785 83.856 19.3902 82.5424 19.2385 81.0278C19.0868 79.5132 23.1792 74.7127 23.1034 72.743C23.0275 70.7733 21.0515 57.7727 21.0515 57.7727L23.9694 57.2847L26.2072 61.63Z" fill="#EA792D"/>
<path d="M52.576 18.6405L37.1935 20.0047L28.7836 11.5176L43.9372 9.77539L52.576 18.6405Z" fill="#FABE44"/>
<path d="M39.6819 57.5919L13.926 60.3164L23.1009 33.7956L49.3941 31.5225L39.6819 57.5919Z" fill="#3333FF"/>
<path d="M13.9259 60.3161L5.90027 52.4358L15.1434 25.915L23.1008 33.7953L13.9259 60.3161Z" fill="#336BFF"/>
<path d="M23.1008 33.7955L15.1434 25.9153L41.9676 24.5625L49.394 31.5224L23.1008 33.7955Z" fill="#3355FF"/>
<path d="M28.5368 30.4843L21.1294 21.8986L28.7834 11.5176L37.1934 20.0047L28.5368 30.4843Z" fill="#FAC744"/>
<path d="M14.1839 36.4228C14.1839 36.4228 13.931 45.0098 15.701 51.3249C17.471 57.6399 16.4596 57.9927 17.471 59.6084C18.4824 61.2242 22.2196 61.0232 22.4219 58.5477C22.6242 56.0722 21.4105 50.3653 20.4522 45.9201C19.4938 41.4749 21.0578 35.6643 19.1879 33.7956C17.318 31.927 15.0714 33.0371 14.5025 34.7552C13.9336 36.4734 14.1839 36.4228 14.1839 36.4228Z" fill="#EA792D"/>
<path d="M44.1103 29.1038L28.5369 30.4844L37.1934 20.0048L52.5759 18.6406L44.1103 29.1038Z" fill="#EA792D"/>
<path d="M46.0989 61.3717C48.0868 61.3717 49.6983 59.7601 49.6983 57.7722C49.6983 55.7844 48.0868 54.1729 46.0989 54.1729C44.111 54.1729 42.4995 55.7844 42.4995 57.7722C42.4995 59.7601 44.111 61.3717 46.0989 61.3717Z" fill="#FAC744"/>
<path d="M20.3723 63.9156C22.3602 63.9156 23.9717 62.3041 23.9717 60.3162C23.9717 58.3283 22.3602 56.7168 20.3723 56.7168C18.3844 56.7168 16.7729 58.3283 16.7729 60.3162C16.7729 62.3041 18.3844 63.9156 20.3723 63.9156Z" fill="#FAC744"/>
<path d="M13.8376 82.1718C16.38 80.5062 16.3739 76.0007 13.824 72.1085C11.2741 68.2163 7.146 66.4113 4.60357 68.0769C2.06114 69.7425 2.06719 74.248 4.61709 78.1402C7.16699 82.0324 11.2951 83.8374 13.8376 82.1718Z" fill="#FABE44"/>
<path d="M34.0028 84.5957C34.1808 83.2846 30.3808 81.6863 25.5154 81.0259C20.65 80.3654 16.5615 80.8929 16.3836 82.2041C16.2056 83.5152 20.0055 85.1135 24.8709 85.7739C29.7363 86.4344 33.8248 85.9068 34.0028 84.5957Z" fill="#FAC744"/>
<path d="M33.2558 88.5249C33.4338 87.2138 29.6339 85.6155 24.7684 84.9551C19.903 84.2946 15.8146 84.8221 15.6366 86.1333C15.4586 87.4444 19.2585 89.0427 24.124 89.7031C28.9894 90.3636 33.0779 89.836 33.2558 88.5249Z" fill="#FAC744"/>
<path d="M14.8208 80.0267C17.2581 78.43 17.2524 74.111 14.8082 70.38C12.3639 66.649 8.40657 64.9188 5.96927 66.5156C3.53197 68.1123 3.53764 72.4313 5.98193 76.1623C8.42621 79.8933 12.3835 81.6235 14.8208 80.0267Z" fill="#FAC744"/>
<path d="M16.385 82.2109L15.6391 86.1416L33.2581 88.5349L34.004 84.6042L16.385 82.2109Z" fill="#FABE44"/>
<path d="M29.1615 18.1333C28.5945 18.1336 28.0402 18.3019 27.5688 18.6172C27.0975 18.9324 26.7301 19.3803 26.5133 19.9043C26.2965 20.4282 26.2399 21.0047 26.3507 21.5609C26.4614 22.117 26.7346 22.6278 27.1357 23.0287C27.5368 23.4296 28.0477 23.7025 28.6039 23.8131C29.16 23.9236 29.7365 23.8667 30.2604 23.6497C30.7843 23.4326 31.232 23.0651 31.547 22.5936C31.862 22.1221 32.0302 21.5677 32.0302 21.0007C32.0303 20.624 31.9562 20.2509 31.8121 19.9029C31.668 19.5549 31.4567 19.2386 31.1903 18.9723C30.9238 18.706 30.6075 18.4948 30.2594 18.3509C29.9113 18.2069 29.5382 18.133 29.1615 18.1333ZM29.1615 23.0286C28.7614 23.0286 28.3704 22.91 28.0377 22.6877C27.705 22.4654 27.4458 22.1495 27.2927 21.7799C27.1396 21.4102 27.0995 21.0035 27.1776 20.6111C27.2556 20.2187 27.4483 19.8583 27.7312 19.5754C28.0141 19.2925 28.3745 19.0998 28.7669 19.0218C29.1593 18.9437 29.566 18.9838 29.9356 19.1369C30.3053 19.29 30.6212 19.5493 30.8435 19.8819C31.0657 20.2146 31.1844 20.6057 31.1844 21.0057C31.1844 21.5422 30.9713 22.0568 30.5919 22.4361C30.2125 22.8155 29.698 23.0286 29.1615 23.0286Z" fill="white"/>
<path d="M39.2404 24.2313C39.6775 24.2313 40.0319 23.877 40.0319 23.4399C40.0319 23.0028 39.6775 22.6484 39.2404 22.6484C38.8033 22.6484 38.449 23.0028 38.449 23.4399C38.449 23.877 38.8033 24.2313 39.2404 24.2313Z" fill="white"/>
<path d="M44.8695 23.9506C45.3066 23.9506 45.6609 23.5962 45.6609 23.1591C45.6609 22.722 45.3066 22.3677 44.8695 22.3677C44.4324 22.3677 44.078 22.722 44.078 23.1591C44.078 23.5962 44.4324 23.9506 44.8695 23.9506Z" fill="white"/>
<path d="M40.679 25.1564C42.0697 24.6886 43.0356 26.0263 43.0407 26.9656C43.0407 27.5118 42.7511 28.0516 42.3719 27.7583C41.9256 27.4132 42.5615 26.2146 41.3516 26.1261C39.3654 25.9807 37.5284 28.8279 36.5625 28.3892C35.9556 28.1098 37.5094 26.221 40.679 25.1564Z" fill="white"/>
<path d="M28.6954 39.8679L27.4994 43.8086C27.4574 43.9473 27.4506 44.0942 27.4796 44.2361C27.5087 44.3781 27.5727 44.5105 27.6658 44.6215C27.7589 44.7324 27.8783 44.8184 28.013 44.8716C28.1478 44.9249 28.2937 44.9436 28.4375 44.9262L37.6592 43.8137C37.8264 43.7937 37.9842 43.7256 38.1135 43.6177C38.2427 43.5097 38.3379 43.3665 38.3874 43.2056L39.6365 39.1801C39.6794 39.0407 39.6866 38.8928 39.6575 38.75C39.6284 38.6071 39.5639 38.4738 39.4699 38.3623C39.3759 38.2509 39.2555 38.1648 39.1196 38.1119C38.9837 38.0591 38.8367 38.0412 38.6921 38.0599L29.4224 39.2522C29.2545 39.2731 29.0964 39.3425 28.9673 39.4518C28.8382 39.5612 28.7437 39.7057 28.6954 39.8679Z" fill="#FAC744"/>
<path d="M39.0383 4.53759C36.3833 1.70308 34.6942 2.0457 34.6942 2.0457C34.6942 2.0457 39.9979 6.73491 39.2456 12.0335C38.7399 15.5988 38.3442 15.748 39.4214 16.6304C40.6857 17.6659 42.2799 16.8175 42.505 16.2865C42.73 15.7555 43.3027 9.09911 39.0383 4.53759Z" fill="#336BFF"/>
<path d="M34.6946 3.18345C35.5737 3.18345 36.2863 2.47081 36.2863 1.59173C36.2863 0.71264 35.5737 0 34.6946 0C33.8155 0 33.1029 0.71264 33.1029 1.59173C33.1029 2.47081 33.8155 3.18345 34.6946 3.18345Z" fill="#EA792D"/>
<path d="M35.0747 43.0792C35.0925 43.2928 35.28 43.4516 35.4936 43.4339C35.7073 43.4162 35.8661 43.2287 35.8484 43.015L35.5884 39.8803C35.5707 39.6667 35.3832 39.5078 35.1696 39.5255C34.9559 39.5433 34.7971 39.7308 34.8148 39.9444L35.0747 43.0792Z" fill="black"/>
<path d="M33.1687 43.3448C33.1864 43.5584 33.3739 43.7173 33.5876 43.6996C33.8012 43.6818 33.96 43.4943 33.9423 43.2807L33.6824 40.1459C33.6647 39.9323 33.4771 39.7735 33.2635 39.7912C33.0499 39.8089 32.891 39.9964 32.9087 40.2101L33.1687 43.3448Z" fill="black"/>
<path d="M31.3076 43.6031C31.3253 43.8167 31.5128 43.9756 31.7265 43.9579C31.9401 43.9401 32.0989 43.7526 32.0812 43.539L31.8213 40.4042C31.8036 40.1906 31.616 40.0318 31.4024 40.0495C31.1888 40.0672 31.03 40.2547 31.0477 40.4684L31.3076 43.6031Z" fill="black"/>
</svg>
