<svg width="24" height="24" viewBox="0 0 24 24" fill="none" xmlns="http://www.w3.org/2000/svg">
<g clip-path="url(#clip0_8093_97098)">
<path d="M12.6831 23.766L11.8833 23.9966C11.8652 24.0015 11.8462 24.0015 11.8281 23.9966L11.6524 23.9458C6.28474 22.4 2.69629 18.2668 2.69629 13.6301V4.29921C2.69629 3.79361 3.06382 3.33575 3.63243 3.13274L11.1276 0.457207C11.5989 0.291608 12.1125 0.291608 12.5838 0.457207L20.2852 3.20629C20.7284 3.36457 21.0149 3.72243 21.0149 4.11577V14.1693C21.0149 18.4827 17.6772 22.3279 12.6831 23.766Z" fill="#336BFF"/>
<path d="M12.5594 22.0124L11.8802 22.2079C11.8649 22.2125 11.8487 22.2125 11.8334 22.2079L11.6843 22.1649C7.12789 20.8531 4.08203 17.3442 4.08203 13.4084V5.48783C4.08203 5.05772 4.39386 4.67062 4.87667 4.49857L11.2389 2.22756C11.6389 2.08691 12.0749 2.08691 12.4749 2.22756L19.0111 4.56029C19.3875 4.6947 19.6307 4.9975 19.6307 5.33213V13.8663C19.6311 17.527 16.7973 20.7916 12.5594 22.0124Z" fill="#3333FF"/>
<path d="M16.5717 8.39721C16.4938 8.30347 16.3981 8.22601 16.2902 8.16924C16.1823 8.11248 16.0642 8.07753 15.9428 8.06639C15.8214 8.05524 15.699 8.06813 15.5825 8.1043C15.4661 8.14047 15.3579 8.19923 15.2642 8.27721L9.95225 12.6969L9.45331 10.436C9.42705 10.3169 9.3776 10.2042 9.30777 10.1042C9.23794 10.0042 9.14911 9.91901 9.04634 9.85339C8.94357 9.78777 8.82888 9.74303 8.70883 9.72174C8.58877 9.70044 8.46569 9.70301 8.34662 9.72928C8.10617 9.78236 7.89665 9.92876 7.76412 10.1363C7.6316 10.3438 7.58693 10.5955 7.63994 10.836L8.46017 14.5547C8.46017 14.5584 8.46211 14.5621 8.46297 14.5657C8.49278 14.7181 8.56062 14.8604 8.66017 14.9795C8.73816 15.0732 8.83385 15.1507 8.94176 15.2074C9.04968 15.2641 9.16772 15.2991 9.28914 15.3102C9.41056 15.3213 9.53298 15.3084 9.64942 15.2722C9.76585 15.236 9.87401 15.1773 9.96773 15.0993L16.4522 9.70476C16.5459 9.62676 16.6233 9.53107 16.68 9.42314C16.7368 9.31522 16.7717 9.19717 16.7828 9.07575C16.7939 8.95434 16.781 8.83192 16.7447 8.71549C16.7085 8.59907 16.6497 8.49092 16.5717 8.39721Z" fill="#FAC744"/>
</g>
<defs>
<clipPath id="clip0_8093_97098">
<rect width="24" height="24" fill="white"/>
</clipPath>
</defs>
</svg>
