<svg width="24" height="28" viewBox="0 0 24 28" fill="none" xmlns="http://www.w3.org/2000/svg">
<g clip-path="url(#clip0_8093_97150)">
<path d="M7.89601 22.9167C7.22057 22.586 6.55468 22.3091 5.93959 21.9483C2.95016 20.188 1.03498 17.6293 0.298689 14.2861C-0.490917 10.7012 0.290642 7.4149 2.57648 4.52009C4.44085 2.15668 6.91126 0.703344 9.91277 0.193687C13.5228 -0.419285 16.7813 0.425035 19.6194 2.69303C21.8927 4.50971 23.2999 6.86965 23.8018 9.71256C24.4124 13.1729 23.6056 16.3104 21.4154 19.0747C19.6455 21.3081 17.3155 22.7091 14.498 23.3117C13.1693 23.6007 11.7987 23.6538 10.4509 23.4684C10.3741 23.4539 10.2947 23.4597 10.221 23.4853C10.1472 23.5108 10.0816 23.5551 10.031 23.6137C9.42744 24.2212 8.8199 24.8194 8.21285 25.421C7.99609 25.636 7.75217 25.7769 7.42727 25.7833C7.01537 25.7917 6.70053 25.6518 6.52199 25.2786C6.33289 24.8831 6.33339 24.4773 6.63314 24.1416C6.98519 23.7516 7.37698 23.4001 7.75267 23.0333C7.80045 22.9903 7.85275 22.9513 7.89601 22.9167ZM12.1875 22.0763C15.6623 21.9424 18.1076 20.5409 19.6702 18.7455C21.5758 16.5531 22.632 14.0291 22.3569 11.1076C21.8866 6.09009 17.5805 1.25799 11.0363 1.77951C5.06851 2.25159 1.16373 7.48164 1.64957 12.6875C2.19726 18.5512 7.16977 22.1796 12.185 22.0783L12.1875 22.0763Z" fill="#3333FF"/>
<path d="M6.17485 26.9574C6.17612 27.0943 6.1497 27.2301 6.09712 27.3568C6.04455 27.4836 5.96688 27.5988 5.86861 27.6958C5.77034 27.7928 5.65344 27.8697 5.52471 27.9219C5.39597 27.9741 5.25795 28.0006 5.11869 28C4.51818 28 4.0585 27.5412 4.06253 26.9421C4.06459 26.6664 4.17801 26.4028 4.37782 26.2093C4.57764 26.0157 4.84748 25.9082 5.12799 25.9102C5.4085 25.9122 5.6767 26.0237 5.87359 26.2201C6.07048 26.4165 6.17993 26.6817 6.17787 26.9574H6.17485Z" fill="#3333FF"/>
<path d="M12.02 17.091C10.1827 17.091 8.34502 17.0767 6.50831 17.099C5.89372 17.1064 5.33446 16.5769 5.33496 15.9684C5.33798 13.3933 5.33798 10.8183 5.33496 8.24347C5.33496 7.67499 5.88819 7.10651 6.53396 7.10651C10.1551 7.12101 13.7762 7.12002 17.3973 7.10354C18.1633 7.09909 18.7095 7.65769 18.705 8.40364C18.6944 10.5678 18.7024 12.7325 18.6999 14.8967C18.6999 15.3001 18.6999 15.7049 18.6687 16.1068C18.6185 16.6906 18.0496 17.1014 17.5301 17.0955C15.6914 17.0802 13.8562 17.091 12.02 17.091ZM12.0154 13.0845L17.3033 7.89002H6.68282L12.0154 13.0845ZM6.73915 16.3303H17.2771L13.5725 12.6806C13.1853 13.0622 12.7884 13.4552 12.3896 13.8462C12.1331 14.0984 11.9475 14.0993 11.6925 13.8541C11.5029 13.6717 11.3133 13.4893 11.1262 13.3045C10.9029 13.084 10.6827 12.8596 10.4785 12.6564L6.73915 16.3303ZM9.80303 12.1388C8.58743 10.9134 7.36832 9.68544 6.12859 8.43626V15.7445L9.80303 12.1388ZM14.2007 12.1003L17.8927 15.7193V8.4768L14.2007 12.1003Z" fill="#3333FF"/>
</g>
<defs>
<clipPath id="clip0_8093_97150">
<rect width="24" height="28" fill="white"/>
</clipPath>
</defs>
</svg>
