<svg width="32" height="32" viewBox="0 0 32 32" fill="none" xmlns="http://www.w3.org/2000/svg">
<g clip-path="url(#clip0_3893_40778)">
<path d="M6.69159 18.5979L7.13891 25.8181L32.0001 2.12109L6.69159 18.5979Z" fill="#336BFF"/>
<path d="M6.71439 18.602L0 9.68773L31.9716 2.04688L6.71439 18.602Z" fill="#3333FF"/>
<path d="M8.76553 21.382L16.5529 31.7716L31.9999 2.12109L8.76553 21.382Z" fill="#3333FF"/>
<path d="M8.76581 21.3819L7.13882 25.8181L32.0001 2.12109L8.76581 21.3819Z" fill="#3333FF"/>
<path d="M4.26021 21.6134L4.18473 21.5233C4.06649 21.3821 3.85617 21.3634 3.71496 21.4817L0.146115 24.4699C0.00490272 24.5882 -0.0137205 24.7985 0.104519 24.9397L0.179993 25.0298C0.298232 25.171 0.508559 25.1897 0.649771 25.0714L4.21861 22.0832C4.35982 21.9649 4.37845 21.7546 4.26021 21.6134Z" fill="#FAC744"/>
<path d="M6.56325 24.3654L6.48777 24.2752C6.36953 24.134 6.15921 24.1154 6.01799 24.2336L2.44915 27.2219C2.30794 27.3401 2.28932 27.5504 2.40756 27.6917L2.48303 27.7818C2.60127 27.923 2.8116 27.9416 2.95281 27.8234L6.52165 24.8351C6.66286 24.7169 6.68149 24.5066 6.56325 24.3654Z" fill="#FAC744"/>
<path d="M6.48494 21.9103L6.40946 21.8201C6.29123 21.6789 6.0809 21.6603 5.93969 21.7785L2.37083 24.7668C2.22962 24.885 2.211 25.0954 2.32924 25.2366L2.40471 25.3267C2.52295 25.4679 2.73328 25.4865 2.87449 25.3683L6.44334 22.3801C6.58456 22.2618 6.60318 22.0515 6.48494 21.9103Z" fill="#FAC744"/>
<path d="M23.5571 23.8223C23.3598 23.8222 23.1668 23.8807 23.0027 23.9903C22.8385 24.0999 22.7106 24.2558 22.635 24.4381C22.5595 24.6205 22.5397 24.8211 22.5782 25.0147C22.6167 25.2083 22.7117 25.3862 22.8513 25.5257C22.9908 25.6653 23.1687 25.7603 23.3623 25.7988C23.5558 25.8373 23.7565 25.8176 23.9388 25.742C24.1212 25.6664 24.277 25.5385 24.3866 25.3743C24.4963 25.2102 24.5547 25.0172 24.5547 24.8198C24.5547 24.5553 24.4496 24.3015 24.2625 24.1145C24.0754 23.9274 23.8217 23.8223 23.5571 23.8223ZM23.5571 25.5255C23.4176 25.5256 23.2811 25.4842 23.165 25.4067C23.0489 25.3292 22.9585 25.219 22.905 25.0901C22.8515 24.9612 22.8375 24.8193 22.8647 24.6824C22.8919 24.5454 22.9591 24.4197 23.0578 24.321C23.1565 24.2222 23.2822 24.155 23.4191 24.1278C23.556 24.1005 23.6979 24.1145 23.8268 24.1679C23.9558 24.2213 24.066 24.3117 24.1436 24.4278C24.2211 24.5438 24.2625 24.6803 24.2625 24.8198C24.2625 24.9125 24.2443 25.0043 24.2089 25.0899C24.1735 25.1755 24.1215 25.2533 24.056 25.3188C23.9905 25.3843 23.9127 25.4363 23.8271 25.4718C23.7415 25.5073 23.6498 25.5255 23.5571 25.5255Z" fill="#FAC744"/>
<path d="M20.9433 26.7324C20.8038 26.7325 20.6675 26.774 20.5516 26.8516C20.4357 26.9292 20.3454 27.0394 20.2921 27.1683C20.2388 27.2972 20.2249 27.439 20.2521 27.5758C20.2794 27.7126 20.3467 27.8382 20.4453 27.9368C20.544 28.0354 20.6697 28.1025 20.8065 28.1297C20.9433 28.1569 21.0851 28.1429 21.214 28.0895C21.3428 28.036 21.453 27.9456 21.5304 27.8296C21.6079 27.7137 21.6493 27.5773 21.6493 27.4378C21.6493 27.3451 21.631 27.2534 21.5955 27.1677C21.5601 27.0821 21.508 27.0043 21.4425 26.9388C21.3769 26.8733 21.2991 26.8214 21.2134 26.786C21.1278 26.7505 21.036 26.7323 20.9433 26.7324ZM20.9433 27.9367C20.8447 27.9367 20.7482 27.9075 20.6661 27.8527C20.5841 27.7978 20.5201 27.7199 20.4824 27.6287C20.4446 27.5376 20.4347 27.4373 20.454 27.3405C20.4732 27.2437 20.5208 27.1548 20.5905 27.085C20.6603 27.0152 20.7492 26.9677 20.846 26.9485C20.9428 26.9292 21.0431 26.9391 21.1343 26.9769C21.2254 27.0146 21.3034 27.0786 21.3582 27.1606C21.413 27.2427 21.4423 27.3391 21.4423 27.4378C21.4423 27.5701 21.3897 27.697 21.2961 27.7906C21.2026 27.8842 21.0757 27.9367 20.9433 27.9367Z" fill="#EA792D"/>
<path d="M9.18581 2.11719C8.90605 2.11719 8.63257 2.20015 8.39995 2.35558C8.16734 2.511 7.98604 2.73192 7.87897 2.99039C7.77191 3.24886 7.7439 3.53327 7.79848 3.80766C7.85306 4.08204 7.98778 4.33409 8.1856 4.53191C8.38342 4.72973 8.63547 4.86445 8.90985 4.91903C9.18424 4.97361 9.46865 4.9456 9.72712 4.83854C9.98559 4.73148 10.2065 4.55017 10.3619 4.31756C10.5174 4.08494 10.6003 3.81146 10.6003 3.5317C10.6003 3.15655 10.4513 2.79676 10.186 2.53149C9.92075 2.26622 9.56096 2.11719 9.18581 2.11719ZM9.18581 4.53186C8.988 4.53186 8.79463 4.47321 8.63015 4.36331C8.46567 4.25341 8.33748 4.0972 8.26178 3.91445C8.18608 3.73169 8.16627 3.53059 8.20486 3.33658C8.24346 3.14256 8.33871 2.96435 8.47859 2.82448C8.61846 2.6846 8.79668 2.58934 8.99069 2.55075C9.1847 2.51216 9.3858 2.53197 9.56856 2.60767C9.75131 2.68337 9.90752 2.81156 10.0174 2.97604C10.1273 3.14051 10.186 3.33388 10.186 3.5317C10.186 3.79696 10.0806 4.05136 9.89303 4.23892C9.70547 4.42649 9.45107 4.53186 9.18581 4.53186Z" fill="#EA792D"/>
<path d="M5.349 5.65625C5.20942 5.65619 5.07295 5.69753 4.95687 5.77504C4.84078 5.85254 4.75029 5.96274 4.69684 6.09168C4.64338 6.22062 4.62936 6.36251 4.65656 6.49942C4.68376 6.63633 4.75094 6.76209 4.84962 6.86081C4.9483 6.95953 5.07404 7.02677 5.21094 7.05402C5.34783 7.08127 5.48974 7.06732 5.6187 7.01391C5.74766 6.96051 5.85789 6.87006 5.93544 6.75401C6.013 6.63795 6.05439 6.50151 6.05439 6.36193C6.05443 6.26927 6.03621 6.17751 6.00078 6.0919C5.96535 6.00628 5.91339 5.92849 5.84789 5.86296C5.78238 5.79742 5.70461 5.74544 5.61901 5.70997C5.53341 5.6745 5.44166 5.65625 5.349 5.65625ZM5.349 6.86057C5.2503 6.86063 5.15379 6.83141 5.0717 6.77661C4.98961 6.72181 4.92561 6.64389 4.88781 6.55271C4.85001 6.46153 4.84011 6.36118 4.85935 6.26437C4.87859 6.16756 4.92612 6.07863 4.99591 6.00884C5.06571 5.93905 5.15464 5.89152 5.25145 5.87228C5.34826 5.85304 5.4486 5.86294 5.53978 5.90074C5.63096 5.93854 5.70888 6.00253 5.76368 6.08463C5.81848 6.16672 5.8477 6.26322 5.84765 6.36193C5.84757 6.49415 5.79501 6.62094 5.70151 6.71444C5.60802 6.80794 5.48123 6.8605 5.349 6.86057Z" fill="#FAC744"/>
</g>
<defs>
<clipPath id="clip0_3893_40778">
<rect width="32" height="32" fill="white"/>
</clipPath>
</defs>
</svg>
