<svg width="57" height="57" viewBox="0 0 57 57" fill="none" xmlns="http://www.w3.org/2000/svg">
<g filter="url(#filter0_b_7885_35106)">
<path d="M0 12.0104C0 5.76191 5.66657 1.04384 11.8116 2.17583L48.8116 8.99161C53.5559 9.86557 57 14.002 57 18.8261V41.1529C57 46.2044 53.2327 50.4627 48.2189 51.0784L11.2189 55.6222C5.25738 56.3544 0 51.7031 0 45.6968V12.0104Z" fill="#FAFCFF"/>
<path d="M0.5 12.0104C0.5 6.07433 5.88324 1.59217 11.721 2.66755L48.721 9.48334C53.2281 10.3136 56.5 14.2432 56.5 18.8261V41.1529C56.5 45.9518 52.9211 49.9972 48.158 50.5821L11.158 55.126C5.49451 55.8215 0.5 51.4028 0.5 45.6968V12.0104Z" stroke="url(#paint0_linear_7885_35106)"/>
</g>
<g clip-path="url(#clip0_7885_35106)">
<path d="M18.6916 31.5982L19.1389 38.8183L44.0001 15.1213L18.6916 31.5982Z" fill="#336BFF"/>
<path d="M18.7144 31.602L12 22.6877L43.9716 15.0469L18.7144 31.602Z" fill="#3333FF"/>
<path d="M20.7656 34.3822L28.553 44.7718L43.9999 15.1213L20.7656 34.3822Z" fill="#3333FF"/>
<path d="M20.7658 34.3821L19.1388 38.8183L44.0001 15.1213L20.7658 34.3821Z" fill="#3333FF"/>
<path d="M16.2602 34.6141L16.1847 34.524C16.0665 34.3828 15.8562 34.3642 15.715 34.4824L12.1461 37.4707C12.0049 37.5889 11.9863 37.7992 12.1045 37.9404L12.18 38.0306C12.2982 38.1718 12.5086 38.1904 12.6498 38.0722L16.2186 35.0839C16.3598 34.9657 16.3784 34.7553 16.2602 34.6141Z" fill="#FAC744"/>
<path d="M18.5632 37.3651L18.4878 37.275C18.3695 37.1338 18.1592 37.1151 18.018 37.2334L14.4492 40.2216C14.3079 40.3399 14.2893 40.5502 14.4076 40.6914L14.483 40.7816C14.6013 40.9228 14.8116 40.9414 14.9528 40.8231L18.5217 37.8349C18.6629 37.7167 18.6815 37.5063 18.5632 37.3651Z" fill="#FAC744"/>
<path d="M18.4849 34.9108L18.4095 34.8206C18.2912 34.6794 18.0809 34.6608 17.9397 34.779L14.3708 37.7673C14.2296 37.8855 14.211 38.0958 14.3292 38.2371L14.4047 38.3272C14.523 38.4684 14.7333 38.487 14.8745 38.3688L18.4433 35.3805C18.5846 35.2623 18.6032 35.052 18.4849 34.9108Z" fill="#FAC744"/>
<path d="M35.5571 36.823C35.3598 36.8229 35.1668 36.8814 35.0027 36.9911C34.8385 37.1007 34.7106 37.2565 34.635 37.4389C34.5595 37.6212 34.5397 37.8219 34.5782 38.0155C34.6167 38.2091 34.7117 38.3869 34.8513 38.5265C34.9908 38.666 35.1687 38.7611 35.3623 38.7996C35.5558 38.8381 35.7565 38.8183 35.9388 38.7427C36.1212 38.6672 36.277 38.5392 36.3866 38.3751C36.4963 38.2109 36.5547 38.018 36.5547 37.8206C36.5547 37.556 36.4496 37.3023 36.2625 37.1152C36.0754 36.9281 35.8217 36.823 35.5571 36.823ZM35.5571 38.5263C35.4176 38.5263 35.2811 38.485 35.165 38.4075C35.0489 38.33 34.9585 38.2198 34.905 38.0908C34.8515 37.9619 34.8375 37.82 34.8647 37.6831C34.8919 37.5462 34.9591 37.4204 35.0578 37.3217C35.1565 37.223 35.2822 37.1557 35.4191 37.1285C35.556 37.1012 35.6979 37.1152 35.8268 37.1686C35.9558 37.222 36.066 37.3124 36.1436 37.4285C36.2211 37.5446 36.2625 37.681 36.2625 37.8206C36.2625 37.9132 36.2443 38.005 36.2089 38.0906C36.1735 38.1762 36.1215 38.254 36.056 38.3196C35.9905 38.3851 35.9127 38.4371 35.8271 38.4725C35.7415 38.508 35.6498 38.5263 35.5571 38.5263Z" fill="#FAC744"/>
<path d="M32.9433 39.7327C32.8038 39.7328 32.6675 39.7742 32.5516 39.8518C32.4357 39.9294 32.3454 40.0396 32.2921 40.1685C32.2388 40.2974 32.2249 40.4392 32.2521 40.576C32.2794 40.7128 32.3467 40.8385 32.4453 40.937C32.544 41.0356 32.6697 41.1028 32.8065 41.1299C32.9433 41.1571 33.0851 41.1431 33.214 41.0897C33.3428 41.0363 33.453 40.9459 33.5304 40.8299C33.6079 40.7139 33.6493 40.5775 33.6493 40.4381C33.6493 40.3454 33.631 40.2536 33.5955 40.168C33.5601 40.0824 33.508 40.0046 33.4425 39.9391C33.3769 39.8736 33.2991 39.8216 33.2134 39.7862C33.1278 39.7508 33.036 39.7326 32.9433 39.7327ZM32.9433 40.937C32.8447 40.937 32.7482 40.9077 32.6661 40.8529C32.5841 40.7981 32.5201 40.7202 32.4824 40.629C32.4446 40.5378 32.4347 40.4375 32.454 40.3407C32.4732 40.2439 32.5208 40.155 32.5905 40.0853C32.6603 40.0155 32.7492 39.968 32.846 39.9487C32.9428 39.9295 33.0431 39.9393 33.1343 39.9771C33.2254 40.0149 33.3034 40.0788 33.3582 40.1609C33.413 40.2429 33.4423 40.3394 33.4423 40.4381C33.4423 40.5704 33.3897 40.6973 33.2961 40.7909C33.2026 40.8844 33.0757 40.937 32.9433 40.937Z" fill="#EA792D"/>
<path d="M21.1858 15.1177C20.906 15.1177 20.6326 15.2006 20.4 15.3561C20.1673 15.5115 19.986 15.7324 19.879 15.9909C19.7719 16.2493 19.7439 16.5338 19.7985 16.8081C19.8531 17.0825 19.9878 17.3346 20.1856 17.5324C20.3834 17.7302 20.6355 17.8649 20.9099 17.9195C21.1842 17.9741 21.4687 17.9461 21.7271 17.839C21.9856 17.732 22.2065 17.5507 22.3619 17.318C22.5174 17.0854 22.6003 16.812 22.6003 16.5322C22.6003 16.157 22.4513 15.7972 22.186 15.532C21.9207 15.2667 21.561 15.1177 21.1858 15.1177ZM21.1858 17.5324C20.988 17.5324 20.7946 17.4737 20.6301 17.3638C20.4657 17.2539 20.3375 17.0977 20.2618 16.9149C20.1861 16.7322 20.1663 16.5311 20.2049 16.3371C20.2435 16.1431 20.3387 15.9648 20.4786 15.825C20.6185 15.6851 20.7967 15.5898 20.9907 15.5512C21.1847 15.5126 21.3858 15.5325 21.5686 15.6082C21.7513 15.6839 21.9075 15.812 22.0174 15.9765C22.1273 16.141 22.186 16.3344 22.186 16.5322C22.186 16.7974 22.0806 17.0518 21.893 17.2394C21.7055 17.427 21.4511 17.5324 21.1858 17.5324Z" fill="#EA792D"/>
<path d="M17.349 18.6555C17.2094 18.6555 17.0729 18.6968 16.9568 18.7743C16.8408 18.8518 16.7503 18.962 16.6968 19.0909C16.6433 19.2199 16.6293 19.3618 16.6565 19.4987C16.6837 19.6356 16.7509 19.7614 16.8496 19.8601C16.9483 19.9588 17.074 20.026 17.2109 20.0533C17.3478 20.0805 17.4897 20.0666 17.6187 20.0132C17.7476 19.9598 17.8579 19.8693 17.9354 19.7533C18.013 19.6372 18.0544 19.5008 18.0544 19.3612C18.0544 19.2685 18.0362 19.1768 18.0007 19.0912C17.9653 19.0055 17.9134 18.9278 17.8479 18.8622C17.7824 18.7967 17.7046 18.7447 17.619 18.7092C17.5334 18.6738 17.4416 18.6555 17.349 18.6555ZM17.349 19.8598C17.2503 19.8599 17.1538 19.8307 17.0717 19.7759C16.9896 19.7211 16.9256 19.6432 16.8878 19.552C16.85 19.4608 16.8401 19.3605 16.8593 19.2636C16.8786 19.1668 16.9261 19.0779 16.9959 19.0081C17.0657 18.9383 17.1546 18.8908 17.2514 18.8715C17.3482 18.8523 17.4486 18.8622 17.5397 18.9C17.6309 18.9378 17.7088 19.0018 17.7637 19.0839C17.8185 19.166 17.8477 19.2625 17.8476 19.3612C17.8475 19.4934 17.795 19.6202 17.7015 19.7137C17.608 19.8072 17.4812 19.8598 17.349 19.8598Z" fill="#FAC744"/>
</g>
<defs>
<filter id="filter0_b_7885_35106" x="-52" y="-49.9927" width="161" height="157.691" filterUnits="userSpaceOnUse" color-interpolation-filters="sRGB">
<feFlood flood-opacity="0" result="BackgroundImageFix"/>
<feGaussianBlur in="BackgroundImageFix" stdDeviation="26"/>
<feComposite in2="SourceAlpha" operator="in" result="effect1_backgroundBlur_7885_35106"/>
<feBlend mode="normal" in="SourceGraphic" in2="effect1_backgroundBlur_7885_35106" result="shape"/>
</filter>
<linearGradient id="paint0_linear_7885_35106" x1="5.06531" y1="6.99059" x2="62.3112" y2="8.00484" gradientUnits="userSpaceOnUse">
<stop stop-color="#FAC744"/>
<stop offset="0.505208" stop-color="#8B14EF"/>
<stop offset="1" stop-color="#3333FF"/>
</linearGradient>
<clipPath id="clip0_7885_35106">
<rect width="32" height="32" fill="white" transform="translate(12 13)"/>
</clipPath>
</defs>
</svg>
