<svg width="19" height="20" viewBox="0 0 19 20" fill="none" xmlns="http://www.w3.org/2000/svg">
<path fill-rule="evenodd" clip-rule="evenodd" d="M11.2793 0.152C10.9093 -4.47035e-08 10.4393 0 9.50032 0C8.56132 0 8.09132 -4.47035e-08 7.72132 0.152C7.22877 0.354211 6.8367 0.743765 6.63132 1.235C6.53732 1.458 6.50132 1.719 6.48632 2.098C6.47965 2.3726 6.40305 2.64097 6.26376 2.87772C6.12448 3.11447 5.92711 3.31178 5.69032 3.451C5.44906 3.5851 5.17786 3.65615 4.90184 3.65754C4.62582 3.65894 4.35392 3.59065 4.11132 3.459C3.77332 3.281 3.52832 3.183 3.28632 3.151C2.75687 3.08148 2.22139 3.2238 1.79632 3.547C1.47832 3.789 1.24332 4.193 0.774315 5C0.304315 5.807 0.0703155 6.21 0.0173155 6.605C-0.0526845 7.131 0.0913156 7.663 0.417316 8.084C0.565316 8.276 0.774316 8.437 1.09732 8.639C1.57432 8.936 1.88032 9.442 1.88032 10C1.88032 10.558 1.57432 11.064 1.09832 11.36C0.774316 11.563 0.565315 11.724 0.416315 11.916C0.255398 12.1239 0.137285 12.3617 0.0687999 12.6156C0.000314891 12.8694 -0.0171837 13.1343 0.0173155 13.395C0.0703155 13.789 0.304315 14.193 0.774315 15C1.24432 15.807 1.47832 16.21 1.79632 16.453C2.22032 16.776 2.75632 16.918 3.28632 16.849C3.52832 16.817 3.77332 16.719 4.11132 16.541C4.35404 16.4092 4.62613 16.3408 4.90234 16.3422C5.17855 16.3436 5.44994 16.4147 5.69132 16.549C6.17732 16.829 6.46532 17.344 6.48632 17.902C6.50132 18.282 6.53732 18.542 6.63132 18.765C6.83532 19.255 7.22732 19.645 7.72132 19.848C8.09132 20 8.56132 20 9.50032 20C10.4393 20 10.9093 20 11.2793 19.848C11.7719 19.6458 12.1639 19.2562 12.3693 18.765C12.4633 18.542 12.4993 18.282 12.5143 17.902C12.5343 17.344 12.8233 16.828 13.3103 16.549C13.5516 16.4149 13.8228 16.3439 14.0988 16.3425C14.3748 16.3411 14.6467 16.4093 14.8893 16.541C15.2273 16.719 15.4723 16.817 15.7143 16.849C16.2443 16.919 16.7803 16.776 17.2043 16.453C17.5223 16.211 17.7573 15.807 18.2263 15C18.6963 14.193 18.9303 13.79 18.9833 13.395C19.0177 13.1343 19 12.8693 18.9314 12.6155C18.8627 12.3616 18.7444 12.1239 18.5833 11.916C18.4353 11.724 18.2263 11.563 17.9033 11.361C17.4263 11.064 17.1203 10.558 17.1203 10C17.1203 9.442 17.4263 8.936 17.9023 8.64C18.2263 8.437 18.4353 8.276 18.5843 8.084C18.7452 7.87606 18.8633 7.63829 18.9318 7.38443C19.0003 7.13057 19.0178 6.86566 18.9833 6.605C18.9303 6.211 18.6963 5.807 18.2263 5C17.7563 4.193 17.5223 3.79 17.2043 3.547C16.7792 3.2238 16.2438 3.08148 15.7143 3.151C15.4723 3.183 15.2273 3.281 14.8893 3.459C14.6466 3.59083 14.3745 3.65922 14.0983 3.65782C13.8221 3.65642 13.5507 3.58528 13.3093 3.451C13.0727 3.31166 12.8755 3.11429 12.7364 2.87755C12.5973 2.64081 12.5209 2.37251 12.5143 2.098C12.4993 1.718 12.4633 1.458 12.3693 1.235C12.2677 0.991736 12.1191 0.770883 11.9321 0.585058C11.745 0.399233 11.5232 0.252078 11.2793 0.152Z" fill="#3333FF"/>
<path d="M12.5233 10C12.5233 11.657 11.1693 13 9.50029 13C7.83029 13 6.47729 11.657 6.47729 10C6.47729 8.343 7.83029 7 9.50029 7C11.1703 7 12.5233 8.343 12.5233 10Z" fill="#FAC744"/>
</svg>
