<svg width="24" height="24" viewBox="0 0 24 24" fill="none" xmlns="http://www.w3.org/2000/svg">
<path fill-rule="evenodd" clip-rule="evenodd" d="M13.2793 2.152C12.9093 2 12.4393 2 11.5003 2C10.5613 2 10.0913 2 9.72132 2.152C9.22877 2.35421 8.8367 2.74377 8.63132 3.235C8.53732 3.458 8.50132 3.719 8.48632 4.098C8.47965 4.3726 8.40305 4.64097 8.26376 4.87772C8.12448 5.11447 7.92711 5.31178 7.69032 5.451C7.44906 5.5851 7.17786 5.65615 6.90184 5.65754C6.62582 5.65894 6.35392 5.59065 6.11132 5.459C5.77332 5.281 5.52832 5.183 5.28632 5.151C4.75687 5.08148 4.22139 5.2238 3.79632 5.547C3.47832 5.789 3.24332 6.193 2.77432 7C2.30432 7.807 2.07032 8.21 2.01732 8.605C1.94732 9.131 2.09132 9.663 2.41732 10.084C2.56532 10.276 2.77432 10.437 3.09732 10.639C3.57432 10.936 3.88032 11.442 3.88032 12C3.88032 12.558 3.57432 13.064 3.09832 13.36C2.77432 13.563 2.56532 13.724 2.41632 13.916C2.2554 14.1239 2.13728 14.3617 2.0688 14.6156C2.00031 14.8694 1.98282 15.1343 2.01732 15.395C2.07032 15.789 2.30432 16.193 2.77432 17C3.24432 17.807 3.47832 18.21 3.79632 18.453C4.22032 18.776 4.75632 18.918 5.28632 18.849C5.52832 18.817 5.77332 18.719 6.11132 18.541C6.35404 18.4092 6.62613 18.3408 6.90234 18.3422C7.17855 18.3436 7.44994 18.4147 7.69132 18.549C8.17732 18.829 8.46532 19.344 8.48632 19.902C8.50132 20.282 8.53732 20.542 8.63132 20.765C8.83532 21.255 9.22732 21.645 9.72132 21.848C10.0913 22 10.5613 22 11.5003 22C12.4393 22 12.9093 22 13.2793 21.848C13.7719 21.6458 14.1639 21.2562 14.3693 20.765C14.4633 20.542 14.4993 20.282 14.5143 19.902C14.5343 19.344 14.8233 18.828 15.3103 18.549C15.5516 18.4149 15.8228 18.3439 16.0988 18.3425C16.3748 18.3411 16.6467 18.4093 16.8893 18.541C17.2273 18.719 17.4723 18.817 17.7143 18.849C18.2443 18.919 18.7803 18.776 19.2043 18.453C19.5223 18.211 19.7573 17.807 20.2263 17C20.6963 16.193 20.9303 15.79 20.9833 15.395C21.0177 15.1343 21 14.8693 20.9314 14.6155C20.8627 14.3616 20.7444 14.1239 20.5833 13.916C20.4353 13.724 20.2263 13.563 19.9033 13.361C19.4263 13.064 19.1203 12.558 19.1203 12C19.1203 11.442 19.4263 10.936 19.9023 10.64C20.2263 10.437 20.4353 10.276 20.5843 10.084C20.7452 9.87606 20.8633 9.63829 20.9318 9.38443C21.0003 9.13057 21.0178 8.86566 20.9833 8.605C20.9303 8.211 20.6963 7.807 20.2263 7C19.7563 6.193 19.5223 5.79 19.2043 5.547C18.7792 5.2238 18.2438 5.08148 17.7143 5.151C17.4723 5.183 17.2273 5.281 16.8893 5.459C16.6466 5.59083 16.3745 5.65922 16.0983 5.65782C15.8221 5.65642 15.5507 5.58528 15.3093 5.451C15.0727 5.31166 14.8755 5.11429 14.7364 4.87755C14.5973 4.64081 14.5209 4.37251 14.5143 4.098C14.4993 3.718 14.4633 3.458 14.3693 3.235C14.2677 2.99174 14.1191 2.77088 13.9321 2.58506C13.745 2.39923 13.5232 2.25208 13.2793 2.152Z" fill="#808080"/>
<path d="M14.5233 12C14.5233 13.657 13.1693 15 11.5003 15C9.83029 15 8.47729 13.657 8.47729 12C8.47729 10.343 9.83029 9 11.5003 9C13.1703 9 14.5233 10.343 14.5233 12Z" fill="white"/>
</svg>
