<svg width="81" height="89" viewBox="0 0 81 89" fill="none" xmlns="http://www.w3.org/2000/svg">
<path d="M40.4948 0C18.1221 0 0 18.1325 0 40.4948C0 57.7461 10.8028 72.4884 25.9805 78.3045L21.2219 83.0424C19.9364 84.3487 19.9571 86.4428 21.2738 87.7284C21.5641 88.0083 21.9062 88.2364 22.2794 88.4023C23.5131 88.8999 24.9231 88.62 25.8665 87.6766L33.2273 80.3158C35.6325 80.7719 38.0689 80.9896 40.5052 80.9896C62.8779 80.9896 81 62.8572 81 40.4948C80.9896 18.1325 62.8675 0 40.4948 0ZM6.23077 40.4948C6.23077 21.5952 21.5952 6.24113 40.4845 6.24113C41.3035 6.24113 42.1329 6.26187 42.9519 6.34481L18.6923 30.6251C11.0412 38.2866 10.274 45.1601 16.4011 51.2769C20.9939 55.8696 28.9041 53.8376 40.1423 45.1912C51.3909 36.5656 57.9949 33.248 59.9647 35.2178C63.0334 38.2866 62.2559 42.1018 57.6942 46.6841L30.8843 73.3904C16.6707 69.2124 6.23077 56.0562 6.23077 40.4948ZM40.4948 74.7485C39.9454 74.7485 39.3751 74.7278 38.8257 74.6967L62.2662 51.2561C69.9277 43.605 70.6845 36.7211 64.5574 30.6044C59.9647 26.022 52.0544 28.0437 40.8162 36.69C29.5987 45.3156 22.9637 48.6643 20.9939 46.6634C17.9251 43.5947 18.6923 39.7691 23.285 35.1971L50.717 7.7755C64.63 12.1402 74.7589 25.1512 74.7589 40.4845C74.7589 59.3945 59.3737 74.7485 40.4948 74.7485Z" fill="#2E405D"/>
</svg>
