<svg width="80" height="80" viewBox="0 0 80 80" fill="none" xmlns="http://www.w3.org/2000/svg">
<ellipse cx="39.5" cy="40" rx="22.5" ry="24" fill="white"/>
<path fill-rule="evenodd" clip-rule="evenodd" d="M39.9999 3.3335C19.7499 3.3335 3.33325 19.7502 3.33325 40.0002C3.33325 60.2502 19.7499 76.6668 39.9999 76.6668C60.2499 76.6668 76.6666 60.2502 76.6666 40.0002C76.6666 19.7502 60.2499 3.3335 39.9999 3.3335ZM55.8932 33.8002C56.1859 33.4656 56.4087 33.076 56.5485 32.6541C56.6884 32.2322 56.7424 31.7865 56.7075 31.3434C56.6726 30.9003 56.5494 30.4687 56.3452 30.0739C56.141 29.6791 55.8599 29.3292 55.5184 29.0446C55.177 28.7601 54.782 28.5467 54.3569 28.417C53.9318 28.2874 53.485 28.244 53.0429 28.2896C52.6007 28.3351 52.1722 28.4686 51.7824 28.6823C51.3926 28.8959 51.0495 29.1853 50.7732 29.5335L36.4399 46.7302L29.0232 39.3102C28.3946 38.703 27.5526 38.367 26.6786 38.3746C25.8046 38.3822 24.9685 38.7327 24.3505 39.3508C23.7325 39.9688 23.3819 40.8048 23.3743 41.6788C23.3667 42.5528 23.7027 43.3948 24.3099 44.0235L34.3099 54.0235C34.6374 54.3508 35.0296 54.6063 35.4613 54.7737C35.893 54.9411 36.3549 55.0167 36.8175 54.9957C37.28 54.9746 37.7332 54.8575 38.148 54.6517C38.5627 54.4458 38.9301 54.1558 39.2266 53.8002L55.8932 33.8002Z" fill="#09CE35"/>
</svg>
