<svg width="40" height="40" viewBox="0 0 40 40" fill="none" xmlns="http://www.w3.org/2000/svg">
<rect x="40" y="40" width="40" height="40" rx="7" transform="rotate(-180 40 40)" fill="#AF0C0C"/>
<path d="M19.3326 11.4125L11.0826 27.9125C11.018 28.0418 10.992 28.187 11.008 28.3308C11.024 28.4745 11.0811 28.6105 11.1726 28.7225C11.2622 28.8294 11.3799 28.9092 11.5124 28.9529C11.6449 28.9967 11.787 29.0026 11.9226 28.97L19.2501 26.9825V18.5H20.7501V26.9825L28.0551 29C28.1684 29.0305 28.2873 29.0341 28.4022 29.0104C28.5171 28.9867 28.6249 28.9363 28.7168 28.8633C28.8087 28.7904 28.8822 28.6969 28.9315 28.5904C28.9807 28.4838 29.0042 28.3672 29.0001 28.25C28.9994 28.1326 28.9712 28.017 28.9176 27.9125L20.6676 11.4125C20.6047 11.2896 20.5091 11.1865 20.3913 11.1145C20.2735 11.0425 20.1382 11.0044 20.0001 11.0044C19.8621 11.0044 19.7267 11.0425 19.609 11.1145C19.4912 11.1865 19.3956 11.2896 19.3326 11.4125Z" fill="white"/>
</svg>
