<svg width="40" height="40" viewBox="0 0 40 40" fill="none" xmlns="http://www.w3.org/2000/svg">
<rect width="40" height="40" rx="7" fill="#09CE35"/>
<path d="M20.6674 28.5875L28.9174 12.0875C28.982 11.9582 29.008 11.813 28.992 11.6692C28.976 11.5255 28.9189 11.3895 28.8274 11.2775C28.7378 11.1706 28.6201 11.0908 28.4876 11.0471C28.3551 11.0033 28.213 10.9974 28.0774 11.03L20.7499 13.0175V21.5H19.2499V13.0175L11.9449 11C11.8316 10.9695 11.7127 10.9659 11.5978 10.9896C11.4829 11.0133 11.3751 11.0637 11.2832 11.1367C11.1913 11.2096 11.1178 11.3031 11.0685 11.4096C11.0193 11.5162 10.9958 11.6328 10.9999 11.75C11.0006 11.8674 11.0288 11.983 11.0824 12.0875L19.3324 28.5875C19.3953 28.7104 19.4909 28.8135 19.6087 28.8855C19.7265 28.9575 19.8618 28.9956 19.9999 28.9956C20.1379 28.9956 20.2733 28.9575 20.391 28.8855C20.5088 28.8135 20.6044 28.7104 20.6674 28.5875Z" fill="white"/>
</svg>
