<svg width="24" height="24" viewBox="0 0 24 24" fill="none" xmlns="http://www.w3.org/2000/svg">
<g clip-path="url(#clip0_8093_97058)">
<path d="M13.1048 1.85377L3.50879 5.97852L6.16837 12.1659L15.7643 8.04114L13.1048 1.85377Z" fill="#FAC744"/>
<path d="M17.8313 1.85476L8.23535 5.97949L10.8949 12.1668L20.4909 8.04211L17.8313 1.85476Z" fill="#EA792D"/>
<path d="M1.76175 5.7168H21.0677C21.4726 5.7168 21.861 5.87767 22.1474 6.16402C22.4337 6.45037 22.5946 6.83874 22.5946 7.2437V22.4736C22.5946 22.8786 22.4337 23.267 22.1474 23.5533C21.861 23.8397 21.4726 24.0005 21.0677 24.0005H1.76175C1.53038 24.0005 1.30127 23.9549 1.08751 23.8664C0.873749 23.7778 0.679526 23.6481 0.515929 23.4844C0.352333 23.3208 0.222567 23.1266 0.134044 22.9128C0.04552 22.699 -2.82308e-05 22.4699 1.31273e-08 22.2386V7.47854C1.31273e-08 7.0113 0.185613 6.56319 0.516005 6.2328C0.846398 5.90241 1.29451 5.7168 1.76175 5.7168Z" fill="#3333FF"/>
<path d="M19.0193 12H24.0001V18.0371H19.0193C18.3312 18.0371 17.6713 17.7637 17.1847 17.2772C16.6982 16.7906 16.4248 16.1307 16.4248 15.4426V14.5942C16.4249 13.9062 16.6982 13.2463 17.1848 12.7598C17.6713 12.2733 18.3312 12 19.0193 12Z" fill="#336BFF"/>
<path d="M19.6086 16.5093C20.4372 16.5093 21.1089 15.8376 21.1089 15.009C21.1089 14.1805 20.4372 13.5088 19.6086 13.5088C18.7801 13.5088 18.1084 14.1805 18.1084 15.009C18.1084 15.8376 18.7801 16.5093 19.6086 16.5093Z" fill="#FAC744"/>
<path d="M19.6084 15.839C20.0669 15.839 20.4386 15.4673 20.4386 15.0088C20.4386 14.5504 20.0669 14.1787 19.6084 14.1787C19.15 14.1787 18.7783 14.5504 18.7783 15.0088C18.7783 15.4673 19.15 15.839 19.6084 15.839Z" fill="white"/>
</g>
<defs>
<clipPath id="clip0_8093_97058">
<rect width="24" height="24" fill="white"/>
</clipPath>
</defs>
</svg>
