<svg width="10" height="12" viewBox="0 0 10 12" fill="none" xmlns="http://www.w3.org/2000/svg">
<path d="M6.62312 6.79864C6.42091 6.79864 6.2861 6.83908 6.2187 6.91996C6.1513 6.98737 6.11759 7.1761 6.11759 7.48615V10.7013C6.11759 10.9304 6.07715 11.0855 5.99627 11.1663C5.91539 11.2472 5.78058 11.2877 5.59185 11.2877H4.72235C4.61451 11.2877 4.56059 11.2135 4.56059 11.0652V7.28394C4.56059 7.09521 4.52689 6.96715 4.45948 6.89974C4.40556 6.83234 4.3112 6.79864 4.17639 6.79864H0.839947C0.786024 6.79864 0.738842 6.7919 0.698401 6.77842C0.67144 6.75146 0.657959 6.69753 0.657959 6.61665V5.76737C0.657959 5.56517 0.698401 5.41688 0.779284 5.32252C0.873648 5.22815 1.03542 5.18097 1.26459 5.18097H3.9944C4.21009 5.18097 4.35838 5.14727 4.43926 5.07987C4.52014 4.99898 4.56059 4.83047 4.56059 4.57434V1.2379C4.56059 1.02221 4.59429 0.880665 4.66169 0.813262C4.72909 0.74586 4.84368 0.712158 5.00545 0.712158H5.93561C6.01649 0.712158 6.06367 0.725639 6.07715 0.752599C6.10411 0.77956 6.11759 0.820002 6.11759 0.873924V4.73611C6.11759 4.92484 6.1513 5.04616 6.2187 5.10009C6.2861 5.15401 6.41417 5.18097 6.60289 5.18097H9.83823C9.94608 5.18097 10 5.23489 10 5.34274V6.21223C10 6.40096 9.9663 6.54925 9.8989 6.65709C9.83149 6.75146 9.70343 6.79864 9.5147 6.79864H6.62312Z" fill="#3333FF"/>
</svg>
