<svg width="24" height="24" viewBox="0 0 24 24" fill="none" xmlns="http://www.w3.org/2000/svg">
<path d="M22.0019 17.1269C21.7083 17.1269 21.4267 17.0103 21.2191 16.8027C21.0114 16.595 20.8948 16.3134 20.8948 16.0198V10.9591C20.8948 6.51795 17.5337 2.86219 13.2172 2.39594V1.0056C13.2172 0.882719 13.193 0.761046 13.146 0.64753C13.0989 0.534014 13.03 0.430881 12.9431 0.344023C12.8561 0.257165 12.753 0.188286 12.6394 0.141322C12.5259 0.0943573 12.4042 0.070228 12.2813 0.0703127C12.0332 0.0703127 11.7954 0.168851 11.62 0.344251C11.4446 0.519651 11.346 0.757544 11.346 1.0056V2.39594C7.02873 2.86219 3.66846 6.51795 3.66846 10.9591V16.102C3.66846 16.3738 3.56047 16.6345 3.36825 16.8267C3.17603 17.019 2.91533 17.1269 2.64349 17.1269H2.56134C2.49048 17.1268 2.42028 17.1407 2.35478 17.1677C2.28929 17.1948 2.22976 17.2345 2.17962 17.2846C2.12948 17.3346 2.08971 17.3941 2.06259 17.4596C2.03546 17.525 2.02152 17.5952 2.02155 17.6661V20.8704C2.02152 20.9413 2.03544 21.0114 2.06253 21.0768C2.08961 21.1422 2.12933 21.2017 2.1794 21.2517C2.22947 21.3018 2.28891 21.3415 2.35434 21.3686C2.41976 21.3957 2.48988 21.4096 2.56069 21.4096H22.0019C22.0727 21.4096 22.1428 21.3956 22.2082 21.3685C22.2736 21.3415 22.3331 21.3017 22.3831 21.2517C22.4332 21.2016 22.4729 21.1422 22.5 21.0768C22.5271 21.0114 22.5411 20.9412 22.5411 20.8704V17.6661C22.5411 17.5953 22.5271 17.5252 22.5 17.4598C22.4729 17.3944 22.4332 17.3349 22.3831 17.2849C22.3331 17.2348 22.2736 17.1951 22.2082 17.168C22.1428 17.1409 22.0727 17.1269 22.0019 17.1269Z" fill="#F1F1F1"/>
<path d="M9.21399 21.8728C9.74432 23.0954 10.9104 23.9445 12.2635 23.9445C13.6166 23.9445 14.7829 23.0954 15.3132 21.8728H9.21399Z" fill="#FAC744"/>
</svg>
