<svg width="24" height="24" viewBox="0 0 24 24" fill="none" xmlns="http://www.w3.org/2000/svg">
<path d="M5.49991 15C6.37457 14.9974 7.21614 14.6653 7.85691 14.07L14.1169 17.647C13.9072 18.4666 13.9996 19.3343 14.3774 20.0913C14.7551 20.8483 15.3929 21.4439 16.1739 21.7692C16.9549 22.0944 17.8269 22.1274 18.6303 21.8623C19.4337 21.5971 20.1147 21.0515 20.5487 20.3252C20.9826 19.599 21.1405 18.7408 20.9934 17.9076C20.8463 17.0745 20.4041 16.3222 19.7477 15.7885C19.0912 15.2548 18.2645 14.9753 17.4189 15.0013C16.5733 15.0273 15.7653 15.357 15.1429 15.93L8.88292 12.353C8.94892 12.103 8.98492 11.844 8.99092 11.585L15.1409 8.06996C15.7331 8.60874 16.4925 8.92747 17.2919 8.97268C18.0912 9.01789 18.8817 8.78684 19.5309 8.31828C20.18 7.84972 20.6483 7.17217 20.8571 6.39929C21.0659 5.6264 21.0026 4.80522 20.6778 4.0735C20.3529 3.34178 19.7863 2.74404 19.0729 2.38056C18.3596 2.01708 17.543 1.90998 16.76 2.07723C15.9771 2.24447 15.2755 2.67588 14.773 3.29909C14.2704 3.92229 13.9975 4.69937 13.9999 5.49996C14.0039 5.78796 14.0429 6.07497 14.1169 6.35296L8.43291 9.59997C8.10329 9.09003 7.64668 8.67461 7.10793 8.39454C6.56919 8.11446 5.96685 7.97936 5.36009 8.00251C4.75334 8.02566 4.16304 8.20627 3.6472 8.52658C3.13136 8.84689 2.70773 9.29589 2.41792 9.82946C2.12811 10.363 1.9821 10.9628 1.99423 11.5699C2.00636 12.177 2.17622 12.7704 2.48711 13.292C2.798 13.8136 3.23923 14.2453 3.76746 14.5447C4.29568 14.8442 4.89272 15.0011 5.49991 15Z" fill="#ABABAB"/>
</svg>
