<svg width="40" height="40" viewBox="0 0 40 40" fill="none" xmlns="http://www.w3.org/2000/svg">
<rect y="-6.10352e-05" width="40" height="40" rx="7" fill="#3333FF"/>
<path d="M20.4993 8C14.1477 8 9 13.1135 9 19.4216C8.99944 21.7314 9.70441 23.9871 11.0218 25.8906C12.3392 27.7941 14.207 29.256 16.3785 30.083L15.0257 31.4192C14.9189 31.5276 14.8402 31.6601 14.7965 31.8054C14.7528 31.9507 14.7453 32.1044 14.7748 32.2532C14.8042 32.402 14.8696 32.5415 14.9654 32.6596C15.0612 32.7776 15.1845 32.8708 15.3246 32.931C15.4959 33.0003 15.684 33.0179 15.8653 32.9816C16.0466 32.9453 16.2131 32.8568 16.3441 32.7271L18.4329 30.6526C19.1147 30.7799 19.807 30.8433 20.5007 30.8422C26.8523 30.8422 32 25.7297 32 19.4216C32 13.1135 26.8508 8 20.4993 8ZM10.7704 19.4216C10.7704 14.0913 15.1318 9.75926 20.4993 9.75926C20.7329 9.75926 20.9666 9.76619 21.2003 9.78747L14.3106 16.637C12.1368 18.7969 11.9197 20.7378 13.6594 22.4596C14.9619 23.7538 17.2086 23.1819 20.3996 20.7439C23.5906 18.3058 25.4674 17.3682 26.0301 17.931C26.9011 18.7961 26.6819 19.8719 25.3859 21.1655L17.7732 28.6974C13.7301 27.5231 10.7704 23.8101 10.7704 19.4216ZM20.4993 29.0844C20.3433 29.0844 20.1804 29.077 20.0249 29.0701L26.6809 22.4596C28.8544 20.301 29.0715 18.3601 27.3321 16.637C26.029 15.343 23.7821 15.9149 20.5914 18.3527C17.4025 20.7859 15.5215 21.7282 14.9609 21.1655C14.0912 20.3008 14.3096 19.2226 15.6161 17.931L23.4022 10.1952C27.3536 11.426 30.2286 15.0969 30.2286 19.4216C30.2281 24.7523 25.8592 29.0844 20.4993 29.0844Z" fill="white"/>
</svg>
