<svg width="69" height="68" viewBox="0 0 69 68" fill="none" xmlns="http://www.w3.org/2000/svg">
<rect x="34.8562" width="48" height="48" rx="7" transform="rotate(45 34.8562 0)" fill="white"/>
<g clip-path="url(#clip0_3600_35268)">
<path d="M50.5926 29.1514L43.1648 23.0787C43.1018 23.0271 43.0254 22.9945 42.9446 22.9846C42.8638 22.9747 42.7818 22.988 42.7082 23.0229C42.6346 23.0577 42.5725 23.1128 42.5289 23.1816C42.4854 23.2504 42.4623 23.3302 42.4623 23.4116V25.3239H28.6283C28.5522 25.3239 28.4793 25.3541 28.4255 25.4079C28.3718 25.4617 28.3416 25.5346 28.3416 25.6106V33.3585C28.3416 33.4345 28.3718 33.5074 28.4255 33.5612C28.4793 33.615 28.5522 33.6452 28.6283 33.6452H42.4623V35.5569C42.4623 35.6383 42.4854 35.7181 42.5289 35.7869C42.5725 35.8557 42.6346 35.9108 42.7082 35.9457C42.7818 35.9805 42.8638 35.9938 42.9446 35.9839C43.0254 35.974 43.1018 35.9414 43.1648 35.8898L50.5915 29.8175C50.6409 29.7772 50.6808 29.7265 50.7082 29.6689C50.7356 29.6114 50.7499 29.5484 50.75 29.4847C50.7501 29.4209 50.7361 29.358 50.7088 29.3003C50.6816 29.2427 50.6419 29.1918 50.5926 29.1514Z" fill="#336BFF"/>
<path d="M41.5458 34.4047H27.5378V32.4924C27.5378 32.4111 27.5147 32.3314 27.4711 32.2626C27.4276 32.1938 27.3655 32.1388 27.292 32.104C27.2184 32.0691 27.1365 32.0558 27.0557 32.0657C26.9749 32.0755 26.8986 32.108 26.8356 32.1595L19.4089 38.2319C19.3596 38.2722 19.3198 38.323 19.2925 38.3806C19.2651 38.4382 19.251 38.5012 19.251 38.5649C19.251 38.6287 19.2651 38.6916 19.2925 38.7492C19.3198 38.8068 19.3596 38.8577 19.4089 38.898L26.8356 44.9701C26.8986 45.0216 26.9749 45.0541 27.0557 45.0639C27.1365 45.0738 27.2184 45.0605 27.292 45.0256C27.3655 44.9908 27.4276 44.9358 27.4711 44.867C27.5147 44.7982 27.5378 44.7185 27.5378 44.6372V42.7254H41.5458C41.6219 42.7254 41.6948 42.6952 41.7486 42.6415C41.8023 42.5877 41.8326 42.5148 41.8326 42.4387V34.6915C41.8326 34.6154 41.8023 34.5425 41.7486 34.4887C41.6948 34.4349 41.6219 34.4047 41.5458 34.4047Z" fill="#3333FF"/>
<path d="M43.8412 31.9392V27.0301C43.8411 26.9333 43.867 26.8383 43.9164 26.7551C43.9657 26.6718 44.0366 26.6034 44.1215 26.557C44.2064 26.5107 44.3023 26.488 44.399 26.4916C44.4957 26.4951 44.5897 26.5246 44.671 26.5771L48.4808 29.0316C48.5565 29.0803 48.6188 29.1473 48.6619 29.2264C48.705 29.3054 48.7276 29.394 48.7276 29.4841C48.7276 29.5741 48.705 29.6627 48.6619 29.7418C48.6188 29.8208 48.5565 29.8878 48.4808 29.9365L44.671 32.3911C44.5898 32.4434 44.4959 32.473 44.3993 32.4766C44.3027 32.4801 44.2069 32.4576 44.122 32.4114C44.0371 32.3651 43.9662 32.2969 43.9168 32.2138C43.8674 32.1307 43.8413 32.0358 43.8412 31.9392Z" fill="#FAC744"/>
<path d="M26.1606 40.9744V36.1571C26.1606 36.0622 26.135 35.9691 26.0865 35.8875C26.0381 35.8059 25.9685 35.7389 25.8852 35.6934C25.8019 35.648 25.7079 35.6258 25.6131 35.6293C25.5183 35.6327 25.4261 35.6616 25.3463 35.7129L21.6091 38.1221C21.5347 38.1699 21.4734 38.2357 21.431 38.3134C21.3886 38.391 21.3663 38.4781 21.3663 38.5666C21.3663 38.6551 21.3886 38.7421 21.431 38.8198C21.4734 38.8975 21.5347 38.9632 21.6091 39.011L25.3469 41.4197C25.4267 41.471 25.5189 41.4999 25.6138 41.5032C25.7087 41.5066 25.8027 41.4843 25.886 41.4387C25.9693 41.3931 26.0388 41.326 26.0871 41.2443C26.1354 41.1625 26.1608 41.0693 26.1606 40.9744Z" fill="#EA792D"/>
</g>
<defs>
<clipPath id="clip0_3600_35268">
<rect width="32" height="32" fill="white" transform="translate(18.9998 17)"/>
</clipPath>
</defs>
</svg>
