<svg width="136" height="24" viewBox="0 0 136 24" fill="none" xmlns="http://www.w3.org/2000/svg">
<path d="M10.0222 0.00133083C7.68109 0.00105223 5.41378 0.823028 3.61374 2.32461C1.8137 3.82619 0.594545 5.9126 0.167862 8.22174C-0.258822 10.5309 0.133895 12.917 1.27786 14.966C2.42182 17.015 4.24482 18.5976 6.43048 19.4391L5.25225 20.6144C5.1596 20.7101 5.09154 20.827 5.05394 20.955C5.01634 21.0829 5.01033 21.2182 5.03641 21.349C5.0625 21.4798 5.1199 21.6024 5.20368 21.706C5.28746 21.8096 5.39509 21.8913 5.51732 21.9439C5.66652 22.0049 5.83035 22.0204 5.9883 21.9885C6.14624 21.9566 6.2913 21.8786 6.4053 21.7644L8.22501 19.939C8.8193 20.051 9.42279 20.1066 10.0275 20.1051C12.6852 20.1051 15.2341 19.046 17.1134 17.1608C18.9927 15.2756 20.0485 12.7187 20.0485 10.0526C20.0485 7.38646 18.9927 4.82955 17.1134 2.94433C15.2341 1.05911 12.6852 0 10.0275 0L10.0222 0.00133083ZM1.53994 10.0539C1.53994 7.79718 2.4336 5.63288 4.02433 4.03714C5.61506 2.44139 7.77255 1.54491 10.0222 1.54491C10.2263 1.54491 10.4291 1.54491 10.6332 1.57018L4.62933 7.59959C2.73408 9.49993 2.54456 11.2084 4.06076 12.7249C5.19614 13.863 7.15457 13.3596 9.93604 11.2146C12.7175 9.06961 14.3521 8.24397 14.8398 8.73767C15.5993 9.49949 15.4084 10.4461 14.2792 11.5855L7.65113 18.2185C5.89067 17.7019 4.3443 16.6273 3.24341 15.1555C2.14251 13.6837 1.54628 11.8939 1.54392 10.0539H1.53994ZM10.0222 18.5629C9.88965 18.5629 9.74386 18.5629 9.60868 18.5509L15.4097 12.7329C17.3059 10.8299 17.495 9.12013 15.977 7.60358C14.8443 6.46107 12.8863 6.96452 10.103 9.11392C7.31979 11.2558 5.68431 12.0841 5.19923 11.5895C4.44025 10.8272 4.62933 9.87796 5.76648 8.74166L12.5549 1.93313C14.4867 2.5428 16.1374 3.82569 17.2084 5.54988C18.2794 7.27406 18.7001 9.32575 18.3945 11.334C18.0889 13.3423 17.0771 15.1746 15.542 16.4997C14.007 17.8248 12.05 18.5552 10.0248 18.5589L10.0222 18.5629Z" fill="white"/>
<path d="M3.89511 22.2842C3.69734 22.2841 3.50566 22.3529 3.35274 22.4788C3.19983 22.6047 3.09514 22.7798 3.05651 22.9745C3.01788 23.1692 3.04769 23.3712 3.14089 23.5463C3.23408 23.7214 3.38487 23.8586 3.56758 23.9346C3.75028 24.0106 3.95359 24.0207 4.14287 23.9631C4.33214 23.9055 4.49566 23.7839 4.60558 23.6188C4.71549 23.4538 4.76499 23.2557 4.74564 23.0582C4.7263 22.8606 4.6393 22.6759 4.49947 22.5356C4.33888 22.3752 4.1217 22.2848 3.89511 22.2842Z" fill="white"/>
<path d="M28.7425 4.59607H37.0843V6.26995H28.7425C27.0743 6.26995 26.2398 6.82791 26.2389 7.94383C26.2389 8.66975 28.0467 9.26937 31.6623 9.74268C35.2778 10.216 37.0852 11.2903 37.0843 12.9655C37.0843 15.1964 35.694 16.3123 32.9134 16.3132H24.5703V14.6393H32.9134C34.5816 14.6393 35.4157 14.0814 35.4157 12.9655C35.4157 12.2395 33.6083 11.6395 29.9936 11.1653C26.379 10.6911 24.5712 9.61726 24.5703 7.94383C24.5703 5.71199 25.961 4.59607 28.7425 4.59607Z" fill="white"/>
<path d="M47.096 6.26995H38.7529V4.59607H47.096C49.8766 4.59607 51.2669 5.71199 51.2669 7.94383C51.2669 10.1757 49.8766 11.2916 47.096 11.2916H40.4215V16.3132H38.7529V9.61239H47.096C48.7642 9.61239 49.5983 9.05443 49.5983 7.93851C49.5983 6.82259 48.7642 6.2664 47.096 6.26995Z" fill="white"/>
<path d="M56.7646 4.59607H60.9368C63.7174 4.59607 65.1077 5.71199 65.1077 7.94383V12.9655C65.1077 15.1964 63.7174 16.3123 60.9368 16.3132H56.7646C53.984 16.3132 52.5938 15.1973 52.5938 12.9655V7.94383C52.5938 5.71199 53.984 4.59607 56.7646 4.59607ZM60.9368 6.26995H56.7646C55.0956 6.26995 54.2615 6.82791 54.2624 7.94383V12.9655C54.2624 14.0805 55.0965 14.6384 56.7646 14.6393H60.9368C62.6041 14.6393 63.4382 14.0814 63.4391 12.9655V7.94383C63.4391 6.8288 62.605 6.27083 60.9368 6.26995V6.26995Z" fill="white"/>
<path d="M75.1181 6.26995H66.7764V4.59607H75.1181C77.9005 4.59607 79.2912 5.71199 79.2903 7.94383C79.2895 10.1757 77.8987 11.2916 75.1181 11.2916H74.6264L79.6323 16.3132H77.2798L72.2739 11.2916H68.445V16.3132H66.7764V9.61239H75.1181C76.7863 9.61239 77.6208 9.05443 77.6217 7.93851C77.6226 6.82259 76.7881 6.2664 75.1181 6.26995Z" fill="white"/>
<path d="M85.2134 6.26995H79.79V4.59607H92.304V6.26995H86.882V16.3132H85.2134V6.26995Z" fill="white"/>
<path d="M102.316 6.26995H93.9658V4.59607H102.316C105.096 4.59607 106.486 5.71199 106.486 7.94383C106.486 10.1757 105.096 11.2916 102.316 11.2916H101.824L106.828 16.3132H104.476L99.4713 11.2916H95.6411V16.3132H93.9724V9.61239H102.322C103.99 9.61239 104.824 9.05443 104.824 7.93851C104.824 6.82259 103.988 6.2664 102.316 6.26995Z" fill="white"/>
<path d="M112.068 4.59607H120.411V6.26995H112.068C110.401 6.26995 109.566 6.82791 109.566 7.94383V9.61239H120.411V11.2863H109.571V12.9601C109.571 14.0752 110.405 14.6331 112.073 14.634H120.416V16.3132H112.068C109.287 16.3132 107.897 15.1973 107.897 12.9655V7.94383C107.897 5.71199 109.287 4.59607 112.068 4.59607Z" fill="white"/>
<path d="M132.924 7.94383V4.59607H134.593V7.94383C134.593 10.1766 133.203 11.2925 130.422 11.2916H130.354L135.427 16.3132H133.074L128.002 11.2916H126.25C124.582 11.2916 123.748 11.8495 123.748 12.9655V16.3132H122.079V12.9655C122.079 10.7327 123.469 9.61682 126.25 9.6177H126.317L121.245 4.59607H123.598L128.67 9.61239H130.422C132.091 9.61239 132.925 9.0562 132.924 7.94383Z" fill="white"/>
</svg>
