<svg width="95" height="113" viewBox="0 0 95 113" fill="none" xmlns="http://www.w3.org/2000/svg">
<path d="M47.4969 0C21.2623 0 1.3724e-06 21.1938 1.3724e-06 47.3389C-0.00230783 56.9123 2.90953 66.2613 8.35088 74.1508C13.7922 82.0404 21.5071 88.0993 30.4764 91.5273L24.8886 97.0652C24.4475 97.5144 24.1227 98.0638 23.9421 98.666C23.7615 99.2682 23.7307 99.9052 23.8522 100.522C23.9738 101.139 24.2441 101.717 24.6398 102.206C25.0354 102.696 25.5447 103.082 26.1235 103.331C26.8311 103.618 27.6078 103.691 28.3567 103.541C29.1056 103.391 29.7934 103.024 30.3344 102.486L38.962 93.8881C41.7781 94.4153 44.6377 94.6783 47.5031 94.6736C73.7377 94.6736 95 73.4839 95 47.3389C95 21.1938 73.7316 0 47.4969 0ZM7.31244 47.3389C7.31244 25.2467 25.327 7.29158 47.4969 7.29158C48.4622 7.29158 49.4274 7.3203 50.3927 7.40849L21.9353 35.7975C12.9564 44.7497 12.0598 52.794 19.2453 59.9304C24.6252 65.2947 33.9052 62.9243 47.0853 52.8193C60.2654 42.7144 68.0176 38.8283 70.3419 41.161C73.9394 44.7463 73.0339 49.2053 67.6807 54.5669L36.237 85.7843C19.5376 80.9171 7.31244 65.5278 7.31244 47.3389ZM47.4969 87.3882C46.8527 87.3882 46.1797 87.3574 45.5376 87.3287L73.0297 59.9304C82.0072 50.9836 82.9038 42.9393 75.7197 35.7975C70.3371 30.4346 61.0564 32.8049 47.8777 42.9085C34.7058 52.9937 26.9365 56.8989 24.6211 54.5669C21.029 50.9829 21.9312 46.5143 27.3275 41.161L59.4874 9.09858C75.8082 14.1996 87.6834 29.4145 87.6834 47.3389C87.6814 69.4331 69.6359 87.3882 47.4969 87.3882Z" fill="white"/>
<path d="M18.455 104.927C17.5181 104.928 16.6104 105.252 15.8866 105.845C15.1629 106.438 14.6678 107.263 14.4857 108.179C14.3036 109.095 14.4458 110.046 14.888 110.869C15.3303 111.692 16.0452 112.337 16.9111 112.694C17.777 113.05 18.7402 113.097 19.6366 112.826C20.5331 112.554 21.3074 111.981 21.8276 111.205C22.3478 110.428 22.5817 109.496 22.4895 108.566C22.3973 107.637 21.9847 106.768 21.322 106.108C20.5596 105.354 19.5295 104.929 18.455 104.927Z" fill="white"/>
</svg>
