<svg width="24" height="24" viewBox="0 0 24 24" fill="none" xmlns="http://www.w3.org/2000/svg">
<g clip-path="url(#clip0_8171_20862)">
<path d="M12.0097 12.1837C14.6492 12.1837 16.7889 10.044 16.7889 7.40447C16.7889 4.76498 14.6492 2.62524 12.0097 2.62524C9.37021 2.62524 7.23047 4.76498 7.23047 7.40447C7.23047 10.044 9.37021 12.1837 12.0097 12.1837Z" fill="#F1F1F1"/>
<path d="M13.5892 12.2783C12.5683 12.6448 11.4516 12.6448 10.4307 12.2783C7.05685 12.7773 4.52777 14.8416 4.52777 17.3122C4.52777 20.1563 7.87773 22.4619 12.0099 22.4619C16.142 22.4619 19.4921 20.157 19.4921 17.3122C19.4921 14.8416 16.9631 12.7773 13.5892 12.2783Z" fill="#F1F1F1"/>
<path d="M12.0099 -0.0197754C5.37644 -0.0197754 0 5.35708 0 11.9901C0 18.6231 5.37644 24.0003 12.0099 24.0003C18.6433 24.0003 24.02 18.6239 24.02 11.9905C24.02 5.35707 18.6429 -0.0197754 12.0099 -0.0197754ZM12.0099 22.4625C6.22613 22.4625 1.53659 17.7742 1.53659 11.9892C1.53659 6.20418 6.22484 1.51595 12.0099 1.51595C17.7949 1.51595 22.4832 6.20418 22.4832 11.9892C22.4832 17.7742 17.7939 22.4625 12.0099 22.4625Z" fill="#F1F1F1"/>
<path d="M15.2346 16.4691C15.9164 16.4691 16.4691 15.9164 16.4691 15.2346C16.4691 14.5527 15.9164 14 15.2346 14C14.5527 14 14 14.5527 14 15.2346C14 15.9164 14.5527 16.4691 15.2346 16.4691Z" fill="#FAC744"/>
<path d="M15.2355 15.6946C15.4896 15.6946 15.6956 15.4886 15.6956 15.2345C15.6956 14.9804 15.4896 14.7744 15.2355 14.7744C14.9814 14.7744 14.7754 14.9804 14.7754 15.2345C14.7754 15.4886 14.9814 15.6946 15.2355 15.6946Z" fill="#EA792D"/>
</g>
<defs>
<clipPath id="clip0_8171_20862">
<rect width="24" height="24" fill="white"/>
</clipPath>
</defs>
</svg>
