<svg width="40" height="40" viewBox="0 0 40 40" fill="none" xmlns="http://www.w3.org/2000/svg">
<rect width="40" height="40" rx="7" fill="white"/>
<g clip-path="url(#clip0_3501_29278)">
<path d="M21.1048 9.8542L11.5089 13.9789L14.1684 20.1663L23.7644 16.0416L21.1048 9.8542Z" fill="#FAC744"/>
<path d="M25.831 9.85457L16.235 13.9793L18.8946 20.1667L28.4906 16.0419L25.831 9.85457Z" fill="#EA792D"/>
<path d="M9.76175 13.7166H29.0677C29.4727 13.7166 29.861 13.8775 30.1474 14.1638C30.4337 14.4502 30.5946 14.8386 30.5946 15.2435V30.4734C30.5946 30.8784 30.4337 31.2668 30.1474 31.5531C29.861 31.8395 29.4727 32.0003 29.0677 32.0003H9.76175C9.53038 32.0003 9.30127 31.9548 9.08751 31.8662C8.87375 31.7777 8.67953 31.6479 8.51593 31.4843C8.35233 31.3206 8.22257 31.1264 8.13404 30.9126C8.04552 30.6989 7.99997 30.4698 8 30.2384V15.4784C8 15.0111 8.18561 14.563 8.51601 14.2326C8.8464 13.9022 9.29451 13.7166 9.76175 13.7166Z" fill="#3333FF"/>
<path d="M27.0197 20.0002H32.0005V26.0373H27.0197C26.3316 26.0373 25.6717 25.764 25.1851 25.2774C24.6986 24.7909 24.4252 24.1309 24.4252 23.4429V22.5945C24.4253 21.9064 24.6987 21.2466 25.1852 20.7601C25.6718 20.2736 26.3317 20.0002 27.0197 20.0002Z" fill="#336BFF"/>
<path d="M27.6087 24.5091C28.4373 24.5091 29.1089 23.8374 29.1089 23.0088C29.1089 22.1803 28.4373 21.5086 27.6087 21.5086C26.7801 21.5086 26.1085 22.1803 26.1085 23.0088C26.1085 23.8374 26.7801 24.5091 27.6087 24.5091Z" fill="#FAC744"/>
<path d="M27.6087 23.839C28.0672 23.839 28.4389 23.4673 28.4389 23.0088C28.4389 22.5504 28.0672 22.1787 27.6087 22.1787C27.1503 22.1787 26.7786 22.5504 26.7786 23.0088C26.7786 23.4673 27.1503 23.839 27.6087 23.839Z" fill="white"/>
</g>
<defs>
<clipPath id="clip0_3501_29278">
<rect width="24" height="24" fill="white" transform="translate(8 8)"/>
</clipPath>
</defs>
</svg>
