<svg width="24" height="24" viewBox="0 0 24 24" fill="none" xmlns="http://www.w3.org/2000/svg">
<path d="M8.10995 13.7681L11.646 17.3031C11.7397 17.3968 11.8669 17.4494 11.9995 17.4494C12.132 17.4494 12.2592 17.3968 12.353 17.3031L15.889 13.7681C15.9827 13.6743 16.1099 13.6217 16.2425 13.6217C16.375 13.6217 16.5022 13.6743 16.596 13.7681L18.152 15.3231C18.2457 15.4168 18.2983 15.544 18.2983 15.6766C18.2983 15.8091 18.2457 15.9363 18.152 16.0301L12.353 21.8291C12.2592 21.9228 12.132 21.9754 11.9995 21.9754C11.8669 21.9754 11.7397 21.9228 11.646 21.8291L5.84795 16.0301C5.75422 15.9363 5.70156 15.8091 5.70156 15.6766C5.70156 15.544 5.75422 15.4168 5.84795 15.3231L7.40395 13.7681C7.49772 13.6743 7.62487 13.6217 7.75745 13.6217C7.89004 13.6217 8.01719 13.6743 8.11095 13.7681H8.10995ZM20.204 10.0331L20.273 10.0911L21.829 11.6461C21.9118 11.7288 21.963 11.838 21.9736 11.9545C21.9841 12.0711 21.9535 12.1877 21.887 12.2841L21.829 12.3541L20.273 13.9091C20.1902 13.9919 20.081 14.0431 19.9645 14.0536C19.8479 14.0642 19.7313 14.0336 19.635 13.9671L19.566 13.9091L18.01 12.3531C17.9275 12.2703 17.8767 12.1612 17.8663 12.0449C17.8559 11.9285 17.8865 11.8122 17.953 11.7161L18.01 11.6461L19.566 10.0911C19.6381 10.0189 19.7307 9.97049 19.8311 9.95244C19.9316 9.93438 20.0352 9.94751 20.128 9.99005L20.204 10.0331ZM4.43395 10.0911L5.98995 11.6461C6.08369 11.7398 6.13635 11.867 6.13635 11.9996C6.13635 12.1321 6.08369 12.2593 5.98995 12.3531L4.43395 13.9101C4.34019 14.0038 4.21304 14.0564 4.08045 14.0564C3.94787 14.0564 3.82072 14.0038 3.72695 13.9101L2.16995 12.3531C2.07622 12.2593 2.02356 12.1321 2.02356 11.9996C2.02356 11.867 2.07622 11.7398 2.16995 11.6461L3.72595 10.0911C3.81972 9.99732 3.94687 9.94466 4.07945 9.94466C4.21204 9.94466 4.34019 9.99732 4.43395 10.0911ZM12.284 10.0331L12.354 10.0911L13.909 11.6461C13.9918 11.7288 14.043 11.838 14.0536 11.9545C14.0641 12.0711 14.0335 12.1877 13.967 12.2841L13.909 12.3541L12.354 13.9091C12.2712 13.9919 12.162 14.0431 12.0455 14.0536C11.9289 14.0642 11.8123 14.0336 11.716 13.9671L11.646 13.9091L10.091 12.3531C10.0084 12.2704 9.95736 12.1614 9.94677 12.045C9.93617 11.9287 9.96667 11.8123 10.033 11.7161L10.091 11.6461L11.646 10.0911C11.7181 10.0189 11.8107 9.97049 11.9111 9.95244C12.0116 9.93438 12.1152 9.94751 12.208 9.99005L12.284 10.0331ZM12.354 2.17105L18.152 7.96905C18.2457 8.06282 18.2983 8.18997 18.2983 8.32255C18.2983 8.45513 18.2457 8.58229 18.152 8.67605L16.596 10.2321C16.5022 10.3258 16.375 10.3784 16.2425 10.3784C16.1099 10.3784 15.9827 10.3258 15.889 10.2321L12.354 6.69705C12.3075 6.65049 12.2523 6.61355 12.1916 6.58834C12.1308 6.56313 12.0657 6.55016 12 6.55016C11.9342 6.55016 11.8691 6.56313 11.8083 6.58834C11.7476 6.61355 11.6924 6.65049 11.646 6.69705L8.11095 10.2321C8.01719 10.3258 7.89004 10.3784 7.75745 10.3784C7.62487 10.3784 7.49772 10.3258 7.40395 10.2321L5.84795 8.67605C5.75422 8.58229 5.70156 8.45513 5.70156 8.32255C5.70156 8.18997 5.75422 8.06282 5.84795 7.96905L11.646 2.17105C11.7397 2.07732 11.8669 2.02466 11.9995 2.02466C12.132 2.02466 12.2602 2.07732 12.354 2.17105Z" fill="white"/>
</svg>
