<svg width="28" height="28" viewBox="0 0 28 28" fill="none" xmlns="http://www.w3.org/2000/svg">
    <path fill-rule="evenodd" clip-rule="evenodd"
        d="M14 0C6.26818 0 0 6.26818 0 14C0 21.7318 6.26818 28 14 28C21.7318 28 28 21.7318 28 14C28 6.26818 21.7318 0 14 0ZM15.2727 7.63636C15.2727 7.29882 15.1386 6.97509 14.9 6.73641C14.6613 6.49773 14.3375 6.36364 14 6.36364C13.6625 6.36364 13.3387 6.49773 13.1 6.73641C12.8614 6.97509 12.7273 7.29882 12.7273 7.63636V15.2727C12.7273 15.6103 12.8614 15.934 13.1 16.1727C13.3387 16.4114 13.6625 16.5455 14 16.5455C14.3375 16.5455 14.6613 16.4114 14.9 16.1727C15.1386 15.934 15.2727 15.6103 15.2727 15.2727V11.4545V7.63636ZM15.2727 19.7273C15.2727 19.3897 15.1386 19.066 14.9 18.8273C14.6613 18.5886 14.3375 18.4545 14 18.4545C13.6625 18.4545 13.3387 18.5886 13.1 18.8273C12.8614 19.066 12.7273 19.3897 12.7273 19.7273V20.3636C12.7273 20.7012 12.8614 21.0249 13.1 21.2636C13.3387 21.5023 13.6625 21.6364 14 21.6364C14.3375 21.6364 14.6613 21.5023 14.9 21.2636C15.1386 21.0249 15.2727 20.7012 15.2727 20.3636V19.7273Z"
        fill="#CF0C00" />
</svg>
