<svg width="28" height="28" viewBox="0 0 28 28" fill="none" xmlns="http://www.w3.org/2000/svg">
<circle cx="14" cy="14" r="14" fill="#09CE35"/>
<path d="M19.1972 8.69748C19.4437 8.46278 19.7718 8.33303 20.1122 8.33561C20.4525 8.33818 20.7786 8.47288 21.0215 8.71128C21.2644 8.94968 21.4053 9.27313 21.4143 9.61338C21.4233 9.95363 21.2997 10.2841 21.0697 10.535L14.0872 19.2675C13.9672 19.3968 13.8222 19.5006 13.6612 19.5726C13.5001 19.6447 13.3261 19.6835 13.1497 19.6867C12.9732 19.69 12.7979 19.6577 12.6343 19.5916C12.4707 19.5256 12.322 19.4273 12.1972 19.3025L7.56673 14.672C7.43777 14.5518 7.33435 14.4069 7.26261 14.2459C7.19087 14.0849 7.1523 13.9111 7.14919 13.7349C7.14608 13.5587 7.1785 13.3836 7.24451 13.2202C7.31052 13.0568 7.40878 12.9083 7.53341 12.7837C7.65804 12.659 7.8065 12.5608 7.96993 12.4948C8.13336 12.4288 8.30841 12.3963 8.48464 12.3994C8.66087 12.4026 8.83467 12.4411 8.99567 12.5129C9.15667 12.5846 9.30157 12.688 9.42173 12.817L13.0862 16.4797L19.164 8.73598C19.1749 8.7225 19.1866 8.70965 19.199 8.69748H19.1972Z" fill="white"/>
</svg>
